<?xml version="1.0" encoding="UTF-8"?>
<!DOCTYPE svg PUBLIC "-//W3C//DTD SVG 1.1//EN" "http://www.w3.org/Graphics/SVG/1.1/DTD/svg11.dtd">
<svg xmlns="http://www.w3.org/2000/svg" version="1.1" width="4000px" height="2000px" style="shape-rendering:geometricPrecision; text-rendering:geometricPrecision; image-rendering:optimizeQuality; fill-rule:evenodd; clip-rule:evenodd" xmlns:xlink="http://www.w3.org/1999/xlink">
<g><path style="opacity:0.999" fill="#5f3a2e" d="M 3999.5,325.5 C 3999.5,883.5 3999.5,1441.5 3999.5,1999.5C 2667.17,1999.5 1334.83,1999.5 2.5,1999.5C 2.5,1725.5 2.5,1451.5 2.5,1177.5C 7.84372,1177.67 13.1771,1177.5 18.5,1177C 30.9583,1171.07 43.9583,1166.74 57.5,1164C 71.8578,1162.43 86.1911,1160.77 100.5,1159C 107.692,1155.81 112.859,1150.64 116,1143.5C 117.269,1131.42 111.769,1124.59 99.5,1123C 88.0345,1122.15 77.0345,1119.48 66.5,1115C 55.5715,1106.57 51.0715,1095.4 53,1081.5C 55.2971,1064.08 64.7971,1052.58 81.5,1047C 102.123,1041.12 122.123,1042.79 141.5,1052C 158.845,1060.36 174.845,1070.7 189.5,1083C 203.5,1095.67 217.5,1108.33 231.5,1121C 250.696,1133.29 271.696,1140.62 294.5,1143C 308.834,1143.35 323.167,1143.19 337.5,1142.5C 357.505,1142.33 377.171,1144.83 396.5,1150C 413.905,1157.36 431.905,1162.69 450.5,1166C 491.998,1168.9 532.332,1163.24 571.5,1149C 602.434,1132.96 611.268,1108.79 598,1076.5C 587.384,1060.57 572.551,1051.07 553.5,1048C 541.863,1047.51 530.197,1046.84 518.5,1046C 497.452,1041.95 484.619,1029.45 480,1008.5C 478.207,962.952 500.207,938.952 546,936.5C 570.423,937.049 591.09,946.049 608,963.5C 612.333,968.833 616.667,974.167 621,979.5C 635.837,1003.17 650.17,1027.17 664,1051.5C 677.693,1074.86 695.86,1094.03 718.5,1109C 742.92,1121.96 768.92,1126.96 796.5,1124C 816.698,1120.6 837.031,1118.77 857.5,1118.5C 870.88,1117.83 884.047,1119.16 897,1122.5C 910.574,1098.82 930.741,1090.65 957.5,1098C 972.428,1102.86 987.428,1107.53 1002.5,1112C 1012.47,1114.12 1020.3,1110.95 1026,1102.5C 1032.42,1092.66 1039.09,1082.99 1046,1073.5C 1054.43,1061.95 1065.76,1055.95 1080,1055.5C 1088.55,1056.45 1097.05,1057.79 1105.5,1059.5C 1112.27,1059.9 1116.77,1056.9 1119,1050.5C 1122.7,1037.99 1120.37,1026.66 1112,1016.5C 1104.01,1008.84 1095.18,1002.34 1085.5,997C 1065.38,979.415 1062.21,959.249 1076,936.5C 1092.64,920.636 1109.98,919.636 1128,933.5C 1133.76,941.506 1136.59,950.506 1136.5,960.5C 1134.79,976.13 1134.29,991.797 1135,1007.5C 1139.7,1031.91 1154.2,1042.74 1178.5,1040C 1183.89,1038.54 1189.23,1036.87 1194.5,1035C 1205.8,1029.68 1217.14,1024.35 1228.5,1019C 1245.09,1014.38 1257.59,1019.55 1266,1034.5C 1269.1,1041.83 1272.93,1048.66 1277.5,1055C 1292.76,1062.18 1308.09,1062.18 1323.5,1055C 1337.45,1048.38 1347.29,1037.88 1353,1023.5C 1355.61,1016.68 1357.61,1009.68 1359,1002.5C 1362.74,975.837 1366.41,949.17 1370,922.5C 1375.99,896.641 1390.16,876.808 1412.5,863C 1432.26,856.465 1445.76,862.965 1453,882.5C 1457.39,897.686 1456.39,912.686 1450,927.5C 1445.76,936.984 1440.76,945.984 1435,954.5C 1416.93,978.306 1399.6,1002.64 1383,1027.5C 1367.95,1056.59 1371.45,1083.09 1393.5,1107C 1400.11,1112.14 1407.44,1115.97 1415.5,1118.5C 1413.27,1107.71 1417.6,1101.04 1428.5,1098.5C 1437,1099.33 1441.33,1104 1441.5,1112.5C 1441.65,1115.25 1440.98,1117.75 1439.5,1120C 1451.55,1117.98 1461.05,1111.82 1468,1101.5C 1481.27,1080.64 1493.27,1058.97 1504,1036.5C 1515.78,1017.53 1532.62,1005.86 1554.5,1001.5C 1568.85,1004.5 1583.19,1007.67 1597.5,1011C 1611.15,1013.42 1622.31,1009.26 1631,998.5C 1645.8,978.004 1648.47,956.004 1639,932.5C 1634.84,923.515 1630.18,914.848 1625,906.5C 1612.17,888.847 1599.84,870.847 1588,852.5C 1580.19,839.895 1575.69,826.228 1574.5,811.5C 1575.87,794.588 1583.53,781.421 1597.5,772C 1606.59,768.679 1615.26,769.679 1623.5,775C 1635.89,784.237 1645.05,796.071 1651,810.5C 1653.93,817.638 1656.27,824.971 1658,832.5C 1660.43,853.195 1663.09,873.861 1666,894.5C 1670.97,924.662 1686.8,946.828 1713.5,961C 1726.08,965.159 1738.08,963.826 1749.5,957C 1754.17,953.667 1758.83,950.333 1763.5,947C 1777.86,932.971 1791.86,918.638 1805.5,904C 1834.55,882.024 1858.38,886.524 1877,917.5C 1880.96,924.587 1884.79,931.754 1888.5,939C 1892.2,938.824 1895.53,937.49 1898.5,935C 1913.62,923.643 1918.79,908.81 1914,890.5C 1906.53,874.258 1902.03,857.258 1900.5,839.5C 1900.35,830.293 1904.02,823.126 1911.5,818C 1914.41,817.007 1917.41,816.507 1920.5,816.5C 1935,818.874 1949.33,822.04 1963.5,826C 1978.97,829.761 1991.8,825.594 2002,813.5C 2018.27,791.887 2021.27,768.553 2011,743.5C 2000.37,721.558 1987.37,701.225 1972,682.5C 1962.97,669.119 1954.97,655.119 1948,640.5C 1938.31,616.52 1942.47,595.353 1960.5,577C 1970.72,569.449 1981.38,568.782 1992.5,575C 2007.78,585.717 2018.62,599.883 2025,617.5C 2027.4,624.047 2029.4,630.714 2031,637.5C 2033.5,658.515 2036.17,679.515 2039,700.5C 2043.51,733.077 2060.01,757.244 2088.5,773C 2098.37,777.211 2108.37,777.545 2118.5,774C 2124.82,771.174 2130.82,767.841 2136.5,764C 2153.11,748.721 2169.11,732.721 2184.5,716C 2192.04,709.729 2200.37,704.729 2209.5,701C 2223.44,696.655 2236.11,698.988 2247.5,708C 2300.86,725.418 2329.69,706.251 2334,650.5C 2335.38,636.169 2336.71,621.836 2338,607.5C 2345.92,564.128 2370.42,550.295 2411.5,566C 2423.5,571.333 2435.5,576.667 2447.5,582C 2482.1,594.75 2501.43,582.75 2505.5,546C 2504.85,530.368 2500.01,516.201 2491,503.5C 2474.41,489.978 2463.08,472.978 2457,452.5C 2452.08,435.544 2454.08,419.544 2463,404.5C 2475.9,390.306 2491.4,386.14 2509.5,392C 2516.29,395.743 2521.13,401.243 2524,408.5C 2526.64,416.277 2528.14,424.277 2528.5,432.5C 2525.27,450.92 2522.6,469.42 2520.5,488C 2520.59,519.753 2536.42,535.919 2568,536.5C 2587.69,535.098 2607.36,533.431 2627,531.5C 2641.02,530.502 2652.69,535.169 2662,545.5C 2670.01,558.516 2679.18,570.683 2689.5,582C 2700.5,591.251 2713.16,594.918 2727.5,593C 2721.28,580 2717.28,566.334 2715.5,552C 2717.88,536.952 2726.54,527.618 2741.5,524C 2749.26,521.876 2756.93,522.209 2764.5,525C 2770.43,527.935 2776.09,531.268 2781.5,535C 2791.45,545.293 2802.78,553.626 2815.5,560C 2817.83,560.339 2820.17,560.172 2822.5,559.5C 2841.34,564.839 2855.17,558.505 2864,540.5C 2878.9,492.864 2866.4,454.364 2826.5,425C 2813.23,416.726 2800.23,408.059 2787.5,399C 2756.24,373.822 2738.91,341.156 2735.5,301C 2736.63,274.728 2748.3,254.728 2770.5,241C 2791.42,229.149 2813.76,225.149 2837.5,229C 2857.47,233.637 2871.3,245.47 2879,264.5C 2880.67,269.5 2882.33,274.5 2884,279.5C 2891.2,314.394 2897.87,349.394 2904,384.5C 2908.03,408.219 2917.7,429.219 2933,447.5C 2959.56,471.797 2990.73,482.297 3026.5,479C 3044.62,473.875 3055.46,462.041 3059,443.5C 3061.74,431.223 3062.08,418.889 3060,406.5C 3058,395.833 3056,385.167 3054,374.5C 3051.45,358.831 3055.62,345.331 3066.5,334C 3085.89,323.828 3102.39,327.328 3116,344.5C 3119.23,350.415 3121.06,356.748 3121.5,363.5C 3119.19,373.075 3117.36,382.741 3116,392.5C 3114.97,402.013 3116.64,411.013 3121,419.5C 3124.87,424.266 3129.87,426.933 3136,427.5C 3145.42,426.748 3154.25,424.082 3162.5,419.5C 3177.2,383.66 3204.04,365.326 3243,364.5C 3259.03,364.305 3274.19,367.805 3288.5,375C 3310.24,390.18 3332.91,391.513 3356.5,379C 3374.44,369.722 3387.61,355.888 3396,337.5C 3403.13,317.096 3400.8,297.762 3389,279.5C 3373.65,258.527 3356.65,238.86 3338,220.5C 3327.93,209.377 3319.6,197.043 3313,183.5C 3304.8,162.329 3305.8,141.662 3316,121.5C 3329.01,102.244 3346.84,95.0778 3369.5,100C 3385.14,108.078 3394.31,120.911 3397,138.5C 3400.52,159.136 3403.85,179.802 3407,200.5C 3409.54,224.704 3422.71,238.871 3446.5,243C 3466.88,246.331 3487.21,245.998 3507.5,242C 3520.55,239.87 3532.88,241.87 3544.5,248C 3560.42,260.958 3578.42,269.624 3598.5,274C 3624.38,277.422 3642.55,267.255 3653,243.5C 3658.91,227.001 3666.91,211.668 3677,197.5C 3683.73,188.588 3692.56,183.254 3703.5,181.5C 3711.01,182.341 3717.18,185.674 3722,191.5C 3731.25,205.665 3740.25,219.998 3749,234.5C 3764.79,255.401 3784.96,260.901 3809.5,251C 3835,242.167 3852.17,225 3861,199.5C 3863.74,191.954 3866.07,184.287 3868,176.5C 3872.4,154.292 3876.07,131.958 3879,109.5C 3881.82,90.2281 3886.82,71.5615 3894,53.5C 3908.05,21.8907 3932.21,8.72403 3966.5,14C 3977.67,18.502 3984.5,26.6687 3987,38.5C 3990.74,62.4256 3987.4,85.4256 3977,107.5C 3973.92,113.991 3970.59,120.325 3967,126.5C 3953.33,144.167 3939.67,161.833 3926,179.5C 3912.96,197.258 3903.96,216.925 3899,238.5C 3895.22,259.714 3897.89,280.048 3907,299.5C 3918.5,315.672 3934.33,324.172 3954.5,325C 3969.49,326.799 3984.49,326.966 3999.5,325.5 Z"/></g>
<g><path style="opacity:1" fill="#a9887e" d="M 3946.5,16.5 C 3955.57,15.0537 3963.4,17.387 3970,23.5C 3975.52,35.3039 3972.02,43.4706 3959.5,48C 3938.92,45.7168 3921.75,52.2168 3908,67.5C 3902.51,74.4866 3897.51,81.82 3893,89.5C 3895.97,63.3913 3907.47,41.8913 3927.5,25C 3933.45,21.0811 3939.79,18.2477 3946.5,16.5 Z"/></g>
<g><path style="opacity:0.96" fill="#5f3a2e" d="M 3617.5,62.5 C 3624.15,61.5921 3630.15,63.0921 3635.5,67C 3648.29,78.997 3655.12,93.8303 3656,111.5C 3658.33,127.566 3658,143.566 3655,159.5C 3653.97,167.56 3649.8,170.06 3642.5,167C 3626.12,148.746 3613.95,127.913 3606,104.5C 3601.86,91.9764 3602.86,79.9764 3609,68.5C 3611.32,65.6047 3614.16,63.6047 3617.5,62.5 Z"/></g>
<g><path style="opacity:1" fill="#a9887e" d="M 3644.5,132.5 C 3643.83,128.167 3643.17,123.833 3642.5,119.5C 3642.07,114.185 3640.57,109.185 3638,104.5C 3633.35,99.5225 3628.35,94.8558 3623,90.5C 3618.52,79.322 3622.36,74.4886 3634.5,76C 3641.12,79.29 3645.62,84.4567 3648,91.5C 3650.8,105.533 3649.64,119.2 3644.5,132.5 Z"/></g>
<g><path style="opacity:1" fill="#a9887e" d="M 3333.5,108.5 C 3348.07,108.969 3352.57,115.969 3347,129.5C 3342.97,133.868 3338.63,137.868 3334,141.5C 3327.65,150.08 3324.48,159.747 3324.5,170.5C 3325.01,176.874 3325.51,183.207 3326,189.5C 3316.61,172.671 3312.61,154.671 3314,135.5C 3316.56,123.473 3323.06,114.473 3333.5,108.5 Z"/></g>
<g><path style="opacity:1" fill="#846156" d="M 3642.5,119.5 C 3643.17,123.833 3643.83,128.167 3644.5,132.5C 3644.01,133.473 3643.51,134.473 3643,135.5C 3642.5,130.177 3642.33,124.844 3642.5,119.5 Z"/></g>
<g><path style="opacity:0.954" fill="#5e3a2d" d="M 3785.5,136.5 C 3805.56,136.061 3814.06,145.728 3811,165.5C 3803.56,179.202 3792.73,182.702 3778.5,176C 3769.21,167.784 3767.05,157.95 3772,146.5C 3775.56,141.763 3780.06,138.43 3785.5,136.5 Z"/></g>
<g><path style="opacity:0.945" fill="#5e3a2d" d="M 3497.5,162.5 C 3515.19,162.021 3522.03,170.355 3518,187.5C 3509.96,197.727 3500.62,199.061 3490,191.5C 3482.41,179.105 3484.91,169.438 3497.5,162.5 Z"/></g>
<g><path style="opacity:0.971" fill="#5f3a2e" d="M 3208.5,195.5 C 3214.7,194.285 3219.87,195.952 3224,200.5C 3230.61,214.081 3232.94,228.414 3231,243.5C 3227.85,273.775 3216.52,300.441 3197,323.5C 3192.4,328.104 3187.23,331.938 3181.5,335C 3174.35,338.058 3168.52,336.558 3164,330.5C 3162.2,326.35 3161.03,322.017 3160.5,317.5C 3161.58,288.935 3167.08,261.269 3177,234.5C 3182.06,222.208 3189.22,211.375 3198.5,202C 3201.73,199.56 3205.06,197.394 3208.5,195.5 Z"/></g>
<g><path style="opacity:1" fill="#a9887e" d="M 3204.5,208.5 C 3211.15,207.112 3216.32,209.112 3220,214.5C 3220.79,219.589 3219.29,223.923 3215.5,227.5C 3203.29,232.877 3195.12,241.877 3191,254.5C 3189.21,260.361 3188.21,266.361 3188,272.5C 3186.19,268.024 3185.19,263.357 3185,258.5C 3180.49,237.159 3186.99,220.493 3204.5,208.5 Z"/></g>
<g><path style="opacity:0.974" fill="#5e3a2d" d="M 3999.5,229.5 C 3999.5,248.5 3999.5,267.5 3999.5,286.5C 3974.03,293.531 3959.03,284.031 3954.5,258C 3957.91,235.597 3970.91,225.597 3993.5,228C 3995.44,228.813 3997.44,229.313 3999.5,229.5 Z"/></g>
<g><path style="opacity:1" fill="#aa897f" d="M 2794.5,240.5 C 2803.94,238.81 2811.77,241.476 2818,248.5C 2821.99,260.515 2818.49,269.682 2807.5,276C 2794,280.158 2782.83,287.658 2774,298.5C 2764.46,313.44 2759.13,329.773 2758,347.5C 2753.76,327.268 2753.43,306.934 2757,286.5C 2762.21,264.993 2774.71,249.66 2794.5,240.5 Z"/></g>
<g><path style="opacity:0.972" fill="#5e3a2d" d="M 3304.5,259.5 C 3326.67,260.505 3339,272.005 3341.5,294C 3336.9,320.807 3321.23,331.474 3294.5,326C 3276.61,317.693 3269.78,303.859 3274,284.5C 3278.98,269.679 3289.14,261.346 3304.5,259.5 Z"/></g>
<g><path style="opacity:1" fill="#a8867c" d="M 3088.5,339.5 C 3099.63,339.782 3102.3,344.616 3096.5,354C 3081.09,359.759 3072.92,370.926 3072,387.5C 3067.18,372.138 3069.68,358.138 3079.5,345.5C 3082.08,342.72 3085.08,340.72 3088.5,339.5 Z"/></g>
<g><path style="opacity:0.967" fill="#5e3a2d" d="M 2967.5,361.5 C 2986.71,359.561 2998.54,367.894 3003,386.5C 3004.49,404.673 2996.32,415.839 2978.5,420C 2960.81,421.407 2949.64,413.574 2945,396.5C 2943.1,378.601 2950.6,366.934 2967.5,361.5 Z"/></g>
<g><path style="opacity:0.976" fill="#5f3a2e" d="M 2751.5,376.5 C 2763.43,376.89 2770.93,382.89 2774,394.5C 2777.9,410.135 2776.9,425.468 2771,440.5C 2762.4,460.447 2749.9,477.613 2733.5,492C 2725.95,498.964 2717.28,500.964 2707.5,498C 2700.08,493.227 2695.91,486.394 2695,477.5C 2694.41,447.271 2703.41,420.271 2722,396.5C 2729.93,386.693 2739.76,380.027 2751.5,376.5 Z"/></g>
<g><path style="opacity:1" fill="#a8867c" d="M 2749.5,389.5 C 2753.18,389.335 2756.85,389.501 2760.5,390C 2752.35,392.156 2745.85,396.656 2741,403.5C 2739.31,407.929 2737.48,412.262 2735.5,416.5C 2728.58,421.443 2724.58,419.609 2723.5,411C 2724.44,403.798 2728.1,398.465 2734.5,395C 2739.43,392.637 2744.43,390.804 2749.5,389.5 Z"/></g>
<g><path style="opacity:1" fill="#a9887e" d="M 2481.5,395.5 C 2491.15,393.337 2495.65,397.003 2495,406.5C 2491.63,411.186 2487.13,414.353 2481.5,416C 2471.71,423.736 2466.21,433.902 2465,446.5C 2462.22,433.485 2463.22,420.819 2468,408.5C 2469.67,406.167 2471.33,403.833 2473,401.5C 2475.74,399.248 2478.57,397.248 2481.5,395.5 Z"/></g>
<g><path style="opacity:0.965" fill="#5e3a2d" d="M 2600.5,433.5 C 2615.68,430.925 2626.84,436.259 2634,449.5C 2639.57,466.452 2634.41,478.952 2618.5,487C 2596.41,491.286 2583.74,482.286 2580.5,460C 2582.09,447.251 2588.76,438.418 2600.5,433.5 Z"/></g>
<g><path style="opacity:1" fill="#a9887e" d="M 1969.5,584.5 C 1986.35,583.174 1999.52,589.508 2009,603.5C 2012.78,608.391 2015.45,613.724 2017,619.5C 2005.76,605.752 1991.42,600.752 1974,604.5C 1964.71,604.88 1960.71,600.547 1962,591.5C 1963.74,588.254 1966.24,585.921 1969.5,584.5 Z"/></g>
<g><path style="opacity:0.961" fill="#5f3a2e" d="M 2274.5,613.5 C 2294.77,613.933 2304.6,624.266 2304,644.5C 2299.35,660.246 2288.85,667.079 2272.5,665C 2256.7,659.917 2250.2,649.084 2253,632.5C 2256.95,622.377 2264.11,616.044 2274.5,613.5 Z"/></g>
<g><path style="opacity:1" fill="#a8867c" d="M 2265.5,621.5 C 2267.53,621.338 2269.53,621.505 2271.5,622C 2272.55,623.388 2272.72,624.888 2272,626.5C 2268.48,628.926 2265.15,631.593 2262,634.5C 2260.44,636.957 2259.44,639.624 2259,642.5C 2256.66,633.869 2258.83,626.869 2265.5,621.5 Z"/></g>
<g><path style="opacity:0.879" fill="#5e3a2d" d="M 2097.5,625.5 C 2105.82,626.311 2108.65,630.645 2106,638.5C 2098.67,644.698 2093.51,643.198 2090.5,634C 2091.26,629.754 2093.59,626.921 2097.5,625.5 Z"/></g>
<g><path style="opacity:0.963" fill="#5e3a2d" d="M 2113.5,680.5 C 2131.01,680.174 2141.01,688.674 2143.5,706C 2140.88,723.956 2130.55,732.29 2112.5,731C 2096.99,726.162 2090.49,715.662 2093,699.5C 2096.23,689.093 2103.07,682.76 2113.5,680.5 Z"/></g>
<g><path style="opacity:0.945" fill="#5e3a2d" d="M 1939.5,740.5 C 1953.06,738.398 1961.06,744.065 1963.5,757.5C 1959.75,774.041 1950.08,778.875 1934.5,772C 1926.07,763.553 1925.4,754.553 1932.5,745C 1934.9,743.476 1937.23,741.976 1939.5,740.5 Z"/></g>
<g><path style="opacity:1" fill="#a9877d" d="M 1640.5,822.5 C 1640.78,824.415 1640.45,826.081 1639.5,827.5C 1635.98,816.809 1629.31,808.643 1619.5,803C 1613.32,801.954 1607.32,800.288 1601.5,798C 1594.9,792.208 1594.9,786.541 1601.5,781C 1612.62,778.96 1621.78,782.46 1629,791.5C 1635.7,800.763 1639.53,811.097 1640.5,822.5 Z"/></g>
<g><path style="opacity:0.952" fill="#5f3a2e" d="M 1802.5,791.5 C 1816.6,791.884 1828.93,796.717 1839.5,806C 1847.67,812.833 1855.17,820.333 1862,828.5C 1864,831.833 1866,835.167 1868,838.5C 1869.74,844.358 1867.57,847.358 1861.5,847.5C 1838.77,845.076 1817.77,837.909 1798.5,826C 1790.21,820.249 1786.71,812.415 1788,802.5C 1790.78,796.035 1795.62,792.368 1802.5,791.5 Z"/></g>
<g><path style="opacity:1" fill="#a8877d" d="M 1803.5,797.5 C 1816.43,796.581 1825.93,801.914 1832,813.5C 1834.37,817.609 1835.71,821.942 1836,826.5C 1828.31,814.24 1817.15,808.74 1802.5,810C 1798.4,805.445 1798.73,801.278 1803.5,797.5 Z"/></g>
<g><path style="opacity:0.889" fill="#5e3a2d" d="M 1719.5,821.5 C 1728.61,821.772 1731.44,826.105 1728,834.5C 1723.96,838.478 1719.96,838.478 1716,834.5C 1713.35,829.039 1714.51,824.706 1719.5,821.5 Z"/></g>
<g><path style="opacity:1" fill="#88655a" d="M 1640.5,822.5 C 1641.63,824.966 1641.8,827.633 1641,830.5C 1639.96,829.756 1639.46,828.756 1639.5,827.5C 1640.45,826.081 1640.78,824.415 1640.5,822.5 Z"/></g>
<g><path style="opacity:0.968" fill="#5e3a2d" d="M 1297.5,851.5 C 1321.63,852.132 1332.46,864.465 1330,888.5C 1321.34,908.575 1306.84,914.408 1286.5,906C 1275,898.185 1270.5,887.352 1273,873.5C 1276.83,861.191 1285,853.858 1297.5,851.5 Z"/></g>
<g><path style="opacity:1" fill="#a9887e" d="M 1418.5,868.5 C 1426.09,866.855 1431.92,869.188 1436,875.5C 1437.1,881.186 1435.27,885.686 1430.5,889C 1425.65,891.129 1420.65,892.795 1415.5,894C 1407.44,897.389 1401.28,902.889 1397,910.5C 1393.51,916.488 1390.84,922.821 1389,929.5C 1386.97,910.611 1391.64,893.611 1403,878.5C 1407.82,874.484 1412.99,871.151 1418.5,868.5 Z"/></g>
<g><path style="opacity:0.961" fill="#5e3a2d" d="M 1733.5,873.5 C 1756.42,872.916 1765.92,883.916 1762,906.5C 1755.54,919.106 1745.37,923.606 1731.5,920C 1716.23,912.106 1712.07,900.273 1719,884.5C 1722.55,878.992 1727.38,875.326 1733.5,873.5 Z"/></g>
<g><path style="opacity:0.972" fill="#5f3a2e" d="M 340.5,912.5 C 351.246,911.806 360.913,914.639 369.5,921C 383.254,934.33 393.088,950.164 399,968.5C 404.855,986.565 406.189,1004.9 403,1023.5C 401.206,1031.26 397.706,1038.09 392.5,1044C 383.933,1045.94 378.767,1042.44 377,1033.5C 376.105,1023.05 372.438,1013.72 366,1005.5C 360.431,997.54 354.264,990.04 347.5,983C 340.577,977.955 333.744,972.788 327,967.5C 318.669,955.503 316.669,942.503 321,928.5C 324.791,919.709 331.291,914.376 340.5,912.5 Z"/></g>
<g><path style="opacity:1" fill="#a9887e" d="M 340.5,924.5 C 352.73,923.029 361.563,927.695 367,938.5C 367.728,941.23 367.562,943.897 366.5,946.5C 365.409,947.888 364.076,948.388 362.5,948C 357.899,939.719 351.065,937.219 342,940.5C 334.865,940.701 332.199,937.368 334,930.5C 336.063,928.266 338.229,926.266 340.5,924.5 Z"/></g>
<g><path style="opacity:0.947" fill="#5e3a2d" d="M 1572.5,929.5 C 1584.86,928.362 1592.19,933.862 1594.5,946C 1590.87,960.982 1581.87,965.649 1567.5,960C 1559.7,952.82 1558.53,944.653 1564,935.5C 1566.32,932.605 1569.16,930.605 1572.5,929.5 Z"/></g>
<g><path style="opacity:1" fill="#a8877d" d="M 1092.5,931.5 C 1100.66,930.171 1104.49,933.505 1104,941.5C 1103.22,943.286 1102.05,944.786 1100.5,946C 1085.85,951.325 1078.02,961.825 1077,977.5C 1074.83,967.444 1075.16,957.444 1078,947.5C 1081.31,940.697 1086.14,935.364 1092.5,931.5 Z"/></g>
<g><path style="opacity:0.973" fill="#5f3a2e" d="M 715.5,945.5 C 727.042,943.69 735.875,947.69 742,957.5C 747.958,966.336 749.958,976.002 748,986.5C 742.356,1009.75 742.023,1033.08 747,1056.5C 748.894,1061.39 751.228,1066.06 754,1070.5C 754.791,1074.93 754.457,1079.26 753,1083.5C 750.598,1085.69 747.764,1087.03 744.5,1087.5C 732.082,1084.25 721.915,1077.58 714,1067.5C 694.413,1039.82 686.746,1009.15 691,975.5C 694.711,961.643 702.878,951.643 715.5,945.5 Z"/></g>
<g><path style="opacity:0.954" fill="#5f3a2e" d="M 55.5,950.5 C 78.5427,951.928 95.7094,962.594 107,982.5C 109.421,988.375 109.921,994.375 108.5,1000.5C 106.473,1002.34 104.14,1002.84 101.5,1002C 91.7124,994.291 80.5458,990.124 68,989.5C 49.9428,995.893 38.7761,989.893 34.5,971.5C 36.5807,959.419 43.5807,952.419 55.5,950.5 Z"/></g>
<g><path style="opacity:1" fill="#a8877d" d="M 535.5,952.5 C 543.712,951.226 547.546,954.559 547,962.5C 544.103,967.155 539.937,968.655 534.5,967C 529.003,961.683 529.336,956.85 535.5,952.5 Z"/></g>
<g><path style="opacity:0.957" fill="#5e3a2d" d="M 1202.5,954.5 C 1218.82,953.32 1228.15,960.82 1230.5,977C 1226.58,996.248 1215.25,1002.92 1196.5,997C 1185.27,988.889 1182.44,978.389 1188,965.5C 1191.55,959.992 1196.38,956.326 1202.5,954.5 Z"/></g>
<g><path style="opacity:1" fill="#a7857b" d="M 55.5,956.5 C 60.9007,955.966 65.9007,957.133 70.5,960C 72.2446,961.692 72.5779,963.525 71.5,965.5C 69.2777,964.222 66.9443,963.222 64.5,962.5C 61.0041,964.261 57.3374,964.761 53.5,964C 50.7586,960.711 51.4253,958.211 55.5,956.5 Z"/></g>
<g><path style="opacity:0.972" fill="#5f3a2e" d="M 205.5,957.5 C 217.355,955.963 228.022,958.797 237.5,966C 266.99,992.126 279.157,1024.63 274,1063.5C 270.762,1074.24 264.762,1076.24 256,1069.5C 253.245,1062.24 249.912,1055.24 246,1048.5C 231.613,1032.1 214.447,1019.6 194.5,1011C 184.318,999.328 181.818,986.162 187,971.5C 191.314,964.349 197.48,959.682 205.5,957.5 Z"/></g>
<g><path style="opacity:1" fill="#a9887d" d="M 715.5,958.5 C 723.328,957.493 726.494,960.826 725,968.5C 722,972.833 718.333,976.5 714,979.5C 711.928,984.24 710.928,989.24 711,994.5C 706.731,995.637 703.731,993.971 702,989.5C 700.001,976.178 704.501,965.845 715.5,958.5 Z"/></g>
<g><path style="opacity:1" fill="#a8877d" d="M 219.5,968.5 C 230.575,970.054 238.408,976.054 243,986.5C 243.769,989.099 243.602,991.599 242.5,994C 241.833,994.667 241.167,994.667 240.5,994C 236.759,985.957 230.426,981.624 221.5,981C 216.046,977.398 215.379,973.231 219.5,968.5 Z"/></g>
<g><path style="opacity:1" fill="#a9887e" d="M 512.5,968.5 C 517.211,968.019 520.544,969.852 522.5,974C 518.694,978.155 515.194,982.655 512,987.5C 512.142,995.828 512.142,1004.16 512,1012.5C 506.978,1022.83 501.311,1023.17 495,1013.5C 491.279,1000 493.612,987.67 502,976.5C 504.975,972.952 508.475,970.286 512.5,968.5 Z"/></g>
<g><path style="opacity:0.958" fill="#5e3a2d" d="M 1440.5,978.5 C 1454.2,977.851 1466.2,982.018 1476.5,991C 1487.87,999.697 1497.04,1010.2 1504,1022.5C 1505.73,1028.27 1503.56,1030.94 1497.5,1030.5C 1475.2,1028.57 1454.87,1021.4 1436.5,1009C 1430.15,1003.15 1427.65,995.981 1429,987.5C 1431.68,982.922 1435.52,979.922 1440.5,978.5 Z"/></g>
<g><path style="opacity:0.921" fill="#5e3a2d" d="M 1311.5,980.5 C 1323.89,981.298 1328.39,987.632 1325,999.5C 1319.57,1006.03 1313.07,1007.2 1305.5,1003C 1298.75,993.057 1300.75,985.557 1311.5,980.5 Z"/></g>
<g><path style="opacity:0.975" fill="#5f3a2e" d="M 876.5,982.5 C 904.366,980.738 921.033,993.405 926.5,1020.5C 924.8,1037.7 915.8,1049.2 899.5,1055C 896.167,1055.67 892.833,1055.67 889.5,1055C 868.596,1050.19 847.929,1051.19 827.5,1058C 820.956,1060.77 815.29,1064.77 810.5,1070C 799.521,1074.84 793.187,1071.34 791.5,1059.5C 794.867,1037.26 805.534,1019.43 823.5,1006C 839.302,993.795 856.969,985.961 876.5,982.5 Z"/></g>
<g><path style="opacity:1" fill="#a9877d" d="M 875.5,992.5 C 881.762,991.872 887.762,992.705 893.5,995C 898.994,999.509 898.661,1003.51 892.5,1007C 891.167,1007.17 889.833,1007.33 888.5,1007.5C 883.405,1006.45 878.405,1005.11 873.5,1003.5C 869.028,1004.58 864.694,1005.91 860.5,1007.5C 860.338,1005.47 860.505,1003.47 861,1001.5C 865.042,997.07 869.875,994.07 875.5,992.5 Z"/></g>
<g><path style="opacity:0.949" fill="#5e3a2d" d="M 940.5,999.5 C 946.814,999.079 952.814,1000.25 958.5,1003C 974.146,1014.08 985.646,1028.58 993,1046.5C 995.312,1052.29 997.479,1058.12 999.5,1064C 998.204,1067.11 995.871,1068.11 992.5,1067C 978.82,1062 967.32,1053.83 958,1042.5C 951.551,1034.71 945.884,1026.38 941,1017.5C 939.213,1013.69 938.046,1009.69 937.5,1005.5C 937.628,1003.05 938.628,1001.05 940.5,999.5 Z"/></g>
<g><path style="opacity:0.935" fill="#5e3a2d" d="M 1416.5,1031.5 C 1434.19,1031.34 1439.69,1039.34 1433,1055.5C 1426.38,1060.39 1419.55,1060.72 1412.5,1056.5C 1405.07,1046.73 1406.41,1038.39 1416.5,1031.5 Z"/></g>
<g><path style="opacity:1" fill="#a9887e" d="M 90.5,1052.5 C 106.22,1050.81 120.72,1054.14 134,1062.5C 137.799,1066.42 137.132,1069.09 132,1070.5C 120.09,1065.03 108.257,1065.2 96.5,1071C 92.1667,1071.67 87.8333,1071.67 83.5,1071C 77.6229,1067.2 76.9562,1062.53 81.5,1057C 84.4375,1055.2 87.4375,1053.7 90.5,1052.5 Z"/></g>
<g><path style="opacity:0.949" fill="#5f3a2e" d="M 323.5,1060.5 C 330.11,1059.59 336.11,1061.09 341.5,1065C 358.508,1079.37 365.674,1097.53 363,1119.5C 360.565,1126.64 356.899,1127.31 352,1121.5C 345.314,1107.15 334.481,1097.32 319.5,1092C 310.574,1083.53 309.574,1074.36 316.5,1064.5C 318.765,1062.87 321.099,1061.54 323.5,1060.5 Z"/></g>
<g><path style="opacity:0.972" fill="#5f3a2e" d="M 472.5,1066.5 C 482.169,1065.24 491.169,1067.07 499.5,1072C 514.962,1084.45 526.129,1099.95 533,1118.5C 535.801,1128.41 532.301,1134.58 522.5,1137C 501.027,1138.63 481.027,1133.96 462.5,1123C 447.964,1108.96 446.131,1093.46 457,1076.5C 461.5,1072.01 466.667,1068.67 472.5,1066.5 Z"/></g>
<g><path style="opacity:1" fill="#a5847a" d="M 331.5,1066.5 C 339.126,1068.13 343.793,1072.79 345.5,1080.5C 342.813,1079.34 340.48,1077.5 338.5,1075C 334.401,1075.12 331.401,1073.45 329.5,1070C 329.978,1068.7 330.645,1067.53 331.5,1066.5 Z"/></g>
<g><path style="opacity:1" fill="#a7857b" d="M 147.5,1069.5 C 154.182,1068.37 157.682,1071.04 158,1077.5C 152.392,1082.04 148.225,1080.87 145.5,1074C 146.044,1072.42 146.711,1070.92 147.5,1069.5 Z"/></g>
<g><path style="opacity:1" fill="#a8867c" d="M 472.5,1072.5 C 482.428,1072.58 485.928,1077.24 483,1086.5C 476.464,1092.35 470.797,1091.69 466,1084.5C 465.339,1078.99 467.506,1074.99 472.5,1072.5 Z"/></g>
<g><path style="opacity:0.929" fill="#5f3a2e" d="M 30.5,1113.5 C 37.2988,1113.98 42.7988,1116.98 47,1122.5C 49.838,1126.17 52.1713,1130.17 54,1134.5C 56.488,1142.01 53.8213,1145.34 46,1144.5C 37.5301,1144.1 29.8635,1141.43 23,1136.5C 16.8523,1125.78 19.3523,1118.11 30.5,1113.5 Z"/></g>
<g><path style="opacity:1" fill="#a58479" d="M 29.5,1116.5 C 33.9764,1116.8 35.3097,1118.97 33.5,1123C 26.0885,1124.22 24.7552,1122.06 29.5,1116.5 Z"/></g>
</svg>
