<?xml version="1.0" encoding="UTF-8"?>
<!DOCTYPE svg PUBLIC "-//W3C//DTD SVG 1.1//EN" "http://www.w3.org/Graphics/SVG/1.1/DTD/svg11.dtd">
<svg xmlns="http://www.w3.org/2000/svg" version="1.1" width="3500px" height="600px" style="shape-rendering:geometricPrecision; text-rendering:geometricPrecision; image-rendering:optimizeQuality; fill-rule:evenodd; clip-rule:evenodd" xmlns:xlink="http://www.w3.org/1999/xlink">
<g><path style="opacity:1" fill="#795246" d="M -0.5,-0.5 C 1166.17,-0.5 2332.83,-0.5 3499.5,-0.5C 3499.5,165.167 3499.5,330.833 3499.5,496.5C 3495.87,500.307 3492.37,504.307 3489,508.5C 3485.3,513.09 3484.63,518.09 3487,523.5C 3491.16,527.435 3495.33,527.435 3499.5,523.5C 3499.5,525.167 3499.5,526.833 3499.5,528.5C 3486.51,531.713 3478.34,526.713 3475,513.5C 3474.25,504.792 3474.58,496.125 3476,487.5C 3479.8,470.444 3483.8,453.444 3488,436.5C 3488.5,433.518 3488.66,430.518 3488.5,427.5C 3492.27,410.008 3492.44,392.341 3489,374.5C 3483.75,354.927 3472.25,340.427 3454.5,331C 3421.43,323.703 3402.77,336.869 3398.5,370.5C 3398.28,374.162 3397.28,377.495 3395.5,380.5C 3389.76,392.372 3380.76,395.872 3368.5,391C 3365,388.833 3362.17,386 3360,382.5C 3355.67,372.5 3351.33,362.5 3347,352.5C 3333.48,332.326 3314.98,325.493 3291.5,332C 3286.51,334.161 3281.84,336.828 3277.5,340C 3268.41,349.029 3259.91,358.529 3252,368.5C 3236.85,386.547 3217.69,393.714 3194.5,390C 3187.2,387.019 3180.54,383.019 3174.5,378C 3162.57,364.745 3151.41,350.912 3141,336.5C 3126.87,321.011 3109.71,315.845 3089.5,321C 3072.6,332.316 3065.77,348.149 3069,368.5C 3071.91,382.912 3076.25,396.912 3082,410.5C 3087.55,425.306 3084.71,438.14 3073.5,449C 3064.02,453.032 3056.52,450.532 3051,441.5C 3044.93,426.598 3043.76,411.265 3047.5,395.5C 3047.57,392.572 3048.23,389.905 3049.5,387.5C 3054.43,374.719 3056.27,361.386 3055,347.5C 3047.42,327.641 3034.25,322.808 3015.5,333C 3006.76,338.747 3000.59,346.58 2997,356.5C 2988.91,385.141 2989.91,413.474 3000,441.5C 3006.22,456.615 3011.89,471.949 3017,487.5C 3021.87,502.35 3022.53,517.35 3019,532.5C 3015.34,543.252 3007.84,547.752 2996.5,546C 2992.61,543.778 2989.78,540.612 2988,536.5C 2984.62,529.199 2982.62,521.532 2982,513.5C 2982,470.485 2982.67,427.485 2984,384.5C 2983.09,367.417 2976.92,352.584 2965.5,340C 2951.72,329.193 2936.39,326.193 2919.5,331C 2916.37,333.128 2913.54,335.628 2911,338.5C 2906.45,347.601 2902.45,356.935 2899,366.5C 2891.61,379.609 2880.45,385.442 2865.5,384C 2860.53,381.926 2856.36,378.759 2853,374.5C 2846.91,364.254 2841.58,353.587 2837,342.5C 2833.98,337.99 2830.81,333.656 2827.5,329.5C 2832.79,332.957 2837.29,337.29 2841,342.5C 2847.07,352.916 2852.74,363.583 2858,374.5C 2854.73,359.375 2848.73,345.375 2840,332.5C 2824.17,316.518 2805.01,310.018 2782.5,313C 2764.59,316.244 2751.09,325.744 2742,341.5C 2735.92,351.07 2732.26,361.403 2731,372.5C 2735.2,357.82 2743.7,346.487 2756.5,338.5C 2741.54,354.439 2733.04,373.439 2731,395.5C 2728.96,422.577 2731.29,449.243 2738,475.5C 2742.67,492.167 2747.33,508.833 2752,525.5C 2755.63,540.279 2755.3,554.946 2751,569.5C 2748.32,576.013 2743.82,580.679 2737.5,583.5C 2742.82,577.872 2746.32,571.205 2748,563.5C 2749.58,531.006 2744.25,499.673 2732,469.5C 2734.74,500.511 2730.41,530.511 2719,559.5C 2715.73,569.407 2717.89,577.74 2725.5,584.5C 2715.37,580.621 2709.21,573.288 2707,562.5C 2706.33,556.167 2706.33,549.833 2707,543.5C 2715.15,522.223 2720.15,500.223 2722,477.5C 2724.06,449.105 2719.72,421.772 2709,395.5C 2688.95,356.061 2657.12,340.561 2613.5,349C 2599.96,355.553 2592.46,366.387 2591,381.5C 2591.69,395.817 2592.03,410.15 2592,424.5C 2589.43,429.821 2585.1,432.154 2579,431.5C 2574.53,431.081 2570.37,429.581 2566.5,427C 2557.88,418.275 2551.38,408.108 2547,396.5C 2543.04,381.64 2537.7,367.307 2531,353.5C 2520.69,339.712 2508.52,337.879 2494.5,348C 2473.85,365.464 2465.02,387.631 2468,414.5C 2472.31,431.741 2476.31,449.075 2480,466.5C 2481.4,475.797 2481.73,485.13 2481,494.5C 2478.89,507.117 2471.72,512.117 2459.5,509.5C 2467.68,510.993 2472.52,507.66 2474,499.5C 2475.42,493.224 2475.76,486.891 2475,480.5C 2471.53,468.429 2467.86,456.429 2464,444.5C 2458.72,422.927 2459.39,401.594 2466,380.5C 2474.17,360.004 2488.67,346.171 2509.5,339C 2514.51,338.15 2519.34,338.65 2524,340.5C 2524.09,338.887 2523.26,337.72 2521.5,337C 2510.17,331.052 2498.84,331.052 2487.5,337C 2469.11,350.605 2457.94,368.771 2454,391.5C 2453.72,412.52 2454.05,433.52 2455,454.5C 2453.17,466.327 2451.33,478.161 2449.5,490C 2449.55,496.056 2451.22,501.556 2454.5,506.5C 2451.57,505.409 2449.41,503.409 2448,500.5C 2442.46,489.326 2439.96,477.493 2440.5,465C 2441.56,449.459 2443.06,433.959 2445,418.5C 2448.71,393.465 2442.21,371.632 2425.5,353C 2415.76,344.083 2404.26,339.25 2391,338.5C 2381.43,339.437 2371.93,340.771 2362.5,342.5C 2362.5,343.5 2362.5,344.5 2362.5,345.5C 2341.41,351.092 2329.25,364.759 2326,386.5C 2325.44,395.576 2326.11,404.576 2328,413.5C 2333.14,433.71 2337.8,454.043 2342,474.5C 2343.91,489.1 2341.91,503.1 2336,516.5C 2331.9,523.613 2325.9,527.946 2318,529.5C 2308.63,527.128 2302.96,521.128 2301,511.5C 2300.33,505.167 2300.33,498.833 2301,492.5C 2305.13,473.105 2309.47,453.771 2314,434.5C 2314.99,429.882 2315.49,425.215 2315.5,420.5C 2321.87,392.814 2316.71,367.481 2300,344.5C 2283.45,326.309 2264.28,322.809 2242.5,334C 2231.42,342.324 2225.75,353.491 2225.5,367.5C 2224.87,371.048 2223.87,374.381 2222.5,377.5C 2220.38,382.217 2217.38,386.384 2213.5,390C 2201.71,395.539 2192.55,392.706 2186,381.5C 2181.86,371.418 2177.53,361.418 2173,351.5C 2154.6,326.486 2132.1,321.986 2105.5,338C 2096.31,345.895 2088.14,354.728 2081,364.5C 2074.76,371.407 2067.93,377.573 2060.5,383C 2039.61,394.409 2019.95,392.743 2001.5,378C 1990.59,366.657 1980.75,354.491 1972,341.5C 1964.88,332.374 1956.05,325.541 1945.5,321C 1918.53,313.078 1901.7,322.911 1895,350.5C 1894.28,358.542 1894.61,366.542 1896,374.5C 1900.96,388.744 1905.62,403.077 1910,417.5C 1911.87,427.399 1909.87,436.399 1904,444.5C 1893.47,453.52 1884.47,452.187 1877,440.5C 1871.01,425.919 1869.84,410.919 1873.5,395.5C 1878.04,382.645 1880.71,369.312 1881.5,355.5C 1879.74,330.452 1867.07,322.285 1843.5,331C 1832.63,337.236 1825.46,346.403 1822,358.5C 1815.69,382.906 1816.02,407.239 1823,431.5C 1829.95,449.735 1836.62,468.068 1843,486.5C 1847.5,500.609 1848.5,514.942 1846,529.5C 1842.9,541.942 1835.07,547.109 1822.5,545C 1817.88,542.382 1814.72,538.549 1813,533.5C 1810.37,525.364 1808.7,517.03 1808,508.5C 1808.44,466.16 1809.11,423.826 1810,381.5C 1808.76,362.185 1800.6,346.685 1785.5,335C 1773.92,328.251 1761.59,326.251 1748.5,329C 1744.56,330.886 1741.06,333.386 1738,336.5C 1732.76,346.547 1728.09,356.88 1724,367.5C 1716.55,379.807 1705.72,384.974 1691.5,383C 1686.48,380.985 1682.31,377.818 1679,373.5C 1672.91,363.254 1667.58,352.587 1663,341.5C 1660.38,337.05 1657.21,333.05 1653.5,329.5C 1659.05,332.213 1663.55,336.213 1667,341.5C 1673.18,351.85 1678.84,362.516 1684,373.5C 1680.73,358.375 1674.73,344.375 1666,331.5C 1654.93,320.049 1641.43,313.549 1625.5,312C 1599.58,309.875 1580.08,320.042 1567,342.5C 1562.25,350.65 1559.25,359.317 1558,368.5C 1562.38,355.636 1570.22,345.636 1581.5,338.5C 1567.36,354.795 1559.19,373.795 1557,395.5C 1555.24,420.82 1557.24,445.82 1563,470.5C 1568.08,489.897 1573.41,509.23 1579,528.5C 1581.81,543.149 1580.81,557.482 1576,571.5C 1572.88,576.457 1568.72,580.124 1563.5,582.5C 1572.54,572.535 1576.54,560.702 1575.5,547C 1573.4,520.017 1567.56,493.85 1558,468.5C 1561.19,499.896 1556.85,530.229 1545,559.5C 1544.14,565.585 1544.47,571.585 1546,577.5C 1547.36,580.023 1549.19,582.023 1551.5,583.5C 1541.67,579.915 1535.51,572.915 1533,562.5C 1532.33,556.167 1532.33,549.833 1533,543.5C 1536.14,532.429 1539.47,521.429 1543,510.5C 1550.62,478.064 1550.29,445.73 1542,413.5C 1535.47,388.323 1521.3,368.823 1499.5,355C 1478.34,344.115 1456.68,342.782 1434.5,351C 1425.11,356.947 1419.61,365.447 1418,376.5C 1417.4,388.674 1417.57,400.841 1418.5,413C 1418.52,417.568 1418.02,422.068 1417,426.5C 1413.88,429.708 1410.05,431.041 1405.5,430.5C 1401.88,430.756 1398.54,429.923 1395.5,428C 1390.67,424.5 1386.5,420.333 1383,415.5C 1374.17,399.342 1367.5,382.342 1363,364.5C 1360.24,356.136 1355.41,349.303 1348.5,344C 1342.54,340.13 1336.2,339.463 1329.5,342C 1301.07,359.707 1289.57,385.207 1295,418.5C 1298.34,431.862 1301.67,445.196 1305,458.5C 1308,472.878 1308,487.211 1305,501.5C 1302.37,506.567 1298.2,509.234 1292.5,509.5C 1295.14,507.691 1297.31,505.358 1299,502.5C 1301.32,494.651 1301.99,486.651 1301,478.5C 1296.26,463.613 1291.93,448.613 1288,433.5C 1282.97,409.642 1286.64,387.308 1299,366.5C 1308.28,352.774 1320.78,343.274 1336.5,338C 1341.32,337.391 1345.99,337.724 1350.5,339C 1343.02,332.633 1334.35,330.3 1324.5,332C 1311.71,336.456 1301.55,344.289 1294,355.5C 1286.58,366.421 1281.91,378.421 1280,391.5C 1279.65,409.35 1280.15,427.183 1281.5,445C 1280.59,459.778 1278.92,474.444 1276.5,489C 1275.7,495.127 1277.03,500.627 1280.5,505.5C 1277.57,504.409 1275.41,502.409 1274,499.5C 1268.35,487.829 1265.85,475.496 1266.5,462.5C 1267.55,447.46 1269.05,432.46 1271,417.5C 1275.45,389.731 1267.28,366.564 1246.5,348C 1234.63,338.93 1221.29,335.93 1206.5,339C 1191.93,341.772 1177.26,343.938 1162.5,345.5C 1146.37,343.939 1130.37,341.605 1114.5,338.5C 1091.4,341.093 1075.23,353.093 1066,374.5C 1061.95,384.612 1060.12,395.112 1060.5,406C 1060.86,420.95 1062.36,435.784 1065,450.5C 1066.81,466.245 1065.14,481.578 1060,496.5C 1058.3,500.948 1055.47,504.281 1051.5,506.5C 1054.89,501.056 1056.22,495.056 1055.5,488.5C 1054.46,477.116 1052.96,465.783 1051,454.5C 1050.99,438.162 1051.49,421.829 1052.5,405.5C 1052.87,379.749 1043.54,358.249 1024.5,341C 1014.02,332.844 1002.36,330.511 989.5,334C 986.991,335.421 984.657,337.088 982.5,339C 995.6,337.809 1007.27,341.476 1017.5,350C 1036.64,366.614 1045.97,387.614 1045.5,413C 1045.48,420.535 1044.98,428.035 1044,435.5C 1040.74,447.937 1037.08,460.27 1033,472.5C 1029.06,484.179 1029.73,495.512 1035,506.5C 1037.98,509.1 1041.48,510.1 1045.5,509.5C 1034.26,511.77 1027.43,507.103 1025,495.5C 1024.3,485.801 1024.63,476.134 1026,466.5C 1028.7,452.665 1032.03,438.999 1036,425.5C 1043.49,394.646 1035.33,368.813 1011.5,348C 997.347,337.726 985.181,339.56 975,353.5C 973,357.5 971,361.5 969,365.5C 964.495,383.347 957.829,400.347 949,416.5C 944.674,423.16 938.841,427.993 931.5,431C 926.232,432.068 921.232,431.401 916.5,429C 915.54,427.581 914.707,426.081 914,424.5C 914.223,409.828 914.556,395.162 915,380.5C 912.854,362.021 902.687,350.854 884.5,347C 844.061,342.967 814.894,359.134 797,395.5C 782.488,432.964 779.822,471.298 789,510.5C 792.141,521.587 795.474,532.587 799,543.5C 802.827,560.716 797.66,574.216 783.5,584C 782.207,584.49 780.873,584.657 779.5,584.5C 785.98,580.763 788.647,575.096 787.5,567.5C 786.204,556.774 783.371,546.44 779,536.5C 773.749,514.755 772.082,492.755 774,470.5C 761.644,500.305 756.31,531.305 758,563.5C 759.593,570.687 762.76,577.02 767.5,582.5C 761.513,580.012 757.347,575.678 755,569.5C 750.701,554.949 750.368,540.282 754,525.5C 759.958,505.25 765.625,484.916 771,464.5C 776.015,437.262 776.682,409.928 773,382.5C 768.89,365.945 761.39,351.278 750.5,338.5C 761.107,346.279 768.94,356.279 774,368.5C 762.877,321.727 734.044,304.56 687.5,317C 677.706,321.477 669.539,327.977 663,336.5C 656.288,348.575 651.288,361.242 648,374.5C 653.667,363.833 659.333,353.167 665,342.5C 668.779,336.882 673.613,332.549 679.5,329.5C 675.515,333.331 672.015,337.664 669,342.5C 664.721,353.724 659.388,364.391 653,374.5C 641.932,386.437 629.765,387.604 616.5,378C 612.578,374.749 609.412,370.916 607,366.5C 603.39,357.003 599.39,347.669 595,338.5C 586.121,329.233 575.287,326.066 562.5,329C 537.104,337.551 523.604,355.384 522,382.5C 522.282,415.674 523.116,448.841 524.5,482C 524.805,496.574 523.972,511.074 522,525.5C 520.376,533.065 516.876,539.565 511.5,545C 497.857,548.425 489.357,543.258 486,529.5C 483.695,515.289 484.695,501.289 489,487.5C 497.061,465.985 504.728,444.318 512,422.5C 515.556,402.419 515.223,382.419 511,362.5C 506.657,344.27 495.49,332.77 477.5,328C 464.9,327.056 456.4,332.556 452,344.5C 450.449,351.418 450.116,358.418 451,365.5C 454.317,379.433 457.317,393.433 460,407.5C 462.071,421.21 459.404,433.877 452,445.5C 442.981,453.975 434.647,453.309 427,443.5C 420.91,433.002 419.91,422.002 424,410.5C 428.007,399.157 432.007,387.823 436,376.5C 438,366.5 438,356.5 436,346.5C 428.911,323.87 413.745,315.037 390.5,320C 381.018,323.16 372.851,328.327 366,335.5C 355.193,349.608 344.026,363.441 332.5,377C 313.322,393.924 292.656,395.924 270.5,383C 258.959,374.459 249.125,364.293 241,352.5C 232.109,340.932 220.609,333.432 206.5,330C 183.112,327.943 166.278,337.443 156,358.5C 153.219,366.729 149.885,374.729 146,382.5C 140.569,391.298 132.736,394.798 122.5,393C 116.921,390.256 112.921,386.089 110.5,380.5C 108.899,377.45 107.899,374.116 107.5,370.5C 103.218,336.864 84.5511,323.697 51.5,331C 32.5479,341.36 20.7146,357.193 16,378.5C 14.053,393.496 14.053,408.496 16,423.5C 21.1558,446.458 26.1558,469.458 31,492.5C 31.6667,499.5 31.6667,506.5 31,513.5C 24.4507,531.18 13.9507,534.18 -0.5,522.5C -0.5,520.5 -0.5,518.5 -0.5,516.5C 1.59981,518.498 3.59981,520.665 5.5,523C 13.5239,528.908 18.5239,527.075 20.5,517.5C 20.4847,515.366 19.9847,513.366 19,511.5C 15.2403,506.317 11.2403,501.317 7,496.5C 1.95198,486.383 0.285312,475.716 2,464.5C 4.07504,453.573 5.07504,442.573 5,431.5C 3.92216,439.473 2.08882,447.14 -0.5,454.5C -0.5,447.167 -0.5,439.833 -0.5,432.5C 5.39798,415.355 7.23132,397.688 5,379.5C 3.93878,375.05 2.10545,371.05 -0.5,367.5C -0.5,244.833 -0.5,122.167 -0.5,-0.5 Z"/></g>
<g><path style="opacity:1" fill="#a9887e" d="M 64.5,307.5 C 88.6634,305.237 105.83,314.904 116,336.5C 118.416,346.586 121.083,356.586 124,366.5C 130.254,373.61 137.42,375.277 145.5,371.5C 143.215,377.361 140.548,383.027 137.5,388.5C 131.209,391.597 125.376,390.931 120,386.5C 117.473,382.779 115.473,378.779 114,374.5C 111.793,365.131 109.46,355.798 107,346.5C 101.252,333.04 91.0849,325.54 76.5,324C 56.3338,322.171 39.8338,329.005 27,344.5C 22.0799,352.672 17.4132,361.005 13,369.5C 14.4602,345.747 25.2935,327.58 45.5,315C 51.7461,311.98 58.0794,309.48 64.5,307.5 Z"/></g>
<g><path style="opacity:1" fill="#aa887e" d="M 2118.5,307.5 C 2142.79,304.525 2161.95,312.859 2176,332.5C 2178.27,336.714 2180.27,341.047 2182,345.5C 2182.67,348.5 2182.67,351.5 2182,354.5C 2166.79,330.2 2144.96,320.367 2116.5,325C 2104.24,328.712 2094.08,335.545 2086,345.5C 2077.91,356.258 2069.08,366.424 2059.5,376C 2046.41,385.715 2032.08,388.048 2016.5,383C 2007.6,378.771 2000.6,372.438 1995.5,364C 2000.69,366.253 2006.02,368.586 2011.5,371C 2032.04,375.799 2049.54,370.632 2064,355.5C 2070,346.833 2076,338.167 2082,329.5C 2092.13,318.689 2104.3,311.356 2118.5,307.5 Z"/></g>
<g><path style="opacity:1" fill="#a9887e" d="M 2252.5,306.5 C 2288.55,307.954 2310.72,326.287 2319,361.5C 2319.67,363.833 2319.67,366.167 2319,368.5C 2313.5,354.693 2305.33,342.859 2294.5,333C 2276.46,321.317 2257.79,319.984 2238.5,329C 2232.93,333.579 2228.43,339.079 2225,345.5C 2223.02,352.76 2221.35,360.093 2220,367.5C 2218.44,373.523 2216.11,379.19 2213,384.5C 2205.88,391.115 2198.88,391.115 2192,384.5C 2190.32,379.334 2188.65,374.334 2187,369.5C 2195.84,374.56 2203.18,372.893 2209,364.5C 2209.67,362.5 2210.33,360.5 2211,358.5C 2212.3,330.793 2226.13,313.46 2252.5,306.5 Z"/></g>
<g><path style="opacity:1" fill="#a9887e" d="M 3426.5,307.5 C 3456.17,307.67 3477.01,321.337 3489,348.5C 3491.73,355.281 3493.06,362.281 3493,369.5C 3488.73,360.911 3484.07,352.578 3479,344.5C 3465.34,328.096 3447.84,321.262 3426.5,324C 3411.11,327.724 3401.28,337.224 3397,352.5C 3395.38,360.927 3393.38,369.26 3391,377.5C 3387.49,388.376 3380.32,392.209 3369.5,389C 3368.33,387.833 3367.17,386.667 3366,385.5C 3364.46,380.279 3362.79,375.279 3361,370.5C 3371.13,375.233 3378.8,372.567 3384,362.5C 3385.67,354.828 3387.33,347.162 3389,339.5C 3395.49,321.687 3407.99,311.02 3426.5,307.5 Z"/></g>
<g><path style="opacity:1" fill="#aa887e" d="M 191.5,308.5 C 215.968,305.82 236.135,313.82 252,332.5C 258.26,343.839 266.093,354.006 275.5,363C 287.061,371.807 300.061,375.14 314.5,373C 322.269,371.082 329.602,368.415 336.5,365C 324.856,382.984 308.523,389.651 287.5,385C 281.372,382.437 275.705,379.103 270.5,375C 260.958,364.46 251.791,353.627 243,342.5C 224.716,324.518 203.55,320.018 179.5,329C 166.874,334.729 157.041,343.562 150,355.5C 149.233,351.406 149.566,347.406 151,343.5C 158.515,324.812 172.015,313.145 191.5,308.5 Z"/></g>
<g><path style="opacity:1" fill="#a8877d" d="M 396.5,308.5 C 418.148,306.978 432.982,316.312 441,336.5C 443.761,344.109 445.261,351.942 445.5,360C 444.467,372.894 442.967,385.727 441,398.5C 440.333,403.833 440.333,409.167 441,414.5C 443.046,421.412 445.213,428.246 447.5,435C 447.451,444.397 443.118,447.397 434.5,444C 432.064,441.293 430.564,438.127 430,434.5C 429.333,428.833 429.333,423.167 430,417.5C 433.361,403.285 436.861,389.118 440.5,375C 441.958,364.463 441.792,353.963 440,343.5C 430.436,318.966 412.936,310.466 387.5,318C 379.711,321.228 372.378,324.894 365.5,329C 373.593,318.734 383.926,311.901 396.5,308.5 Z"/></g>
<g><path style="opacity:1" fill="#a9877d" d="M 1920.5,307.5 C 1939.42,306.52 1954.75,313.353 1966.5,328C 1960.65,325.073 1954.65,322.073 1948.5,319C 1921.44,308.784 1902.6,316.951 1892,343.5C 1890.06,354.152 1890.06,364.819 1892,375.5C 1895.34,388.846 1898.67,402.179 1902,415.5C 1902.81,423.222 1902.48,430.889 1901,438.5C 1897.01,445.066 1892.01,446.066 1886,441.5C 1884.57,437.594 1884.23,433.594 1885,429.5C 1889.51,422.474 1891.68,414.808 1891.5,406.5C 1890.66,395.802 1889.5,385.135 1888,374.5C 1882.92,350.414 1889.42,330.248 1907.5,314C 1911.65,311.26 1915.98,309.093 1920.5,307.5 Z"/></g>
<g><path style="opacity:1" fill="#a8877d" d="M 3094.5,308.5 C 3113.44,307.474 3128.77,314.307 3140.5,329C 3135.4,325.862 3129.9,323.029 3124,320.5C 3096.76,308.795 3077.42,316.462 3066,343.5C 3063.94,356.538 3064.27,369.538 3067,382.5C 3070.47,394.032 3073.47,405.699 3076,417.5C 3076.79,424.556 3076.45,431.556 3075,438.5C 3072.78,444.25 3068.61,446.416 3062.5,445C 3058.7,440.909 3057.53,436.076 3059,430.5C 3063.27,423.253 3065.44,415.419 3065.5,407C 3064.65,395.082 3063.15,383.249 3061,371.5C 3057.35,348.11 3064.51,328.943 3082.5,314C 3086.48,311.838 3090.48,310.005 3094.5,308.5 Z"/></g>
<g><path style="opacity:1" fill="#aa887e" d="M 3291.5,308.5 C 3321.28,304.967 3342.45,316.634 3355,343.5C 3356.43,347.406 3356.77,351.406 3356,355.5C 3339.48,329.989 3316.31,320.489 3286.5,327C 3277.95,330.226 3270.45,335.059 3264,341.5C 3254.88,352.961 3245.38,364.127 3235.5,375C 3217.83,389.023 3199.5,390.023 3180.5,378C 3176.08,374.253 3172.42,369.92 3169.5,365C 3196.48,379.469 3220.32,375.302 3241,352.5C 3248.01,337.99 3258.18,326.157 3271.5,317C 3278.07,313.652 3284.74,310.818 3291.5,308.5 Z"/></g>
<g><path style="opacity:1" fill="#a9877d" d="M 1653.5,329.5 C 1650.01,326.823 1646.01,324.99 1641.5,324C 1619.24,320.147 1599.24,324.98 1581.5,338.5C 1570.22,345.636 1562.38,355.636 1558,368.5C 1559.25,359.317 1562.25,350.65 1567,342.5C 1580.08,320.042 1599.58,309.875 1625.5,312C 1641.43,313.549 1654.93,320.049 1666,331.5C 1674.73,344.375 1680.73,358.375 1684,373.5C 1678.84,362.516 1673.18,351.85 1667,341.5C 1663.55,336.213 1659.05,332.213 1653.5,329.5 Z"/></g>
<g><path style="opacity:1" fill="#a8877d" d="M 750.5,338.5 C 732.151,325.331 711.818,320.831 689.5,325C 685.771,325.844 682.437,327.344 679.5,329.5C 673.613,332.549 668.779,336.882 665,342.5C 659.333,353.167 653.667,363.833 648,374.5C 651.288,361.242 656.288,348.575 663,336.5C 669.539,327.977 677.706,321.477 687.5,317C 734.044,304.56 762.877,321.727 774,368.5C 768.94,356.279 761.107,346.279 750.5,338.5 Z"/></g>
<g><path style="opacity:1" fill="#a8877d" d="M 2827.5,329.5 C 2808.16,321.479 2788.83,321.645 2769.5,330C 2764.76,332.36 2760.43,335.193 2756.5,338.5C 2743.7,346.487 2735.2,357.82 2731,372.5C 2732.26,361.403 2735.92,351.07 2742,341.5C 2751.09,325.744 2764.59,316.244 2782.5,313C 2805.01,310.018 2824.17,316.518 2840,332.5C 2848.73,345.375 2854.73,359.375 2858,374.5C 2852.74,363.583 2847.07,352.916 2841,342.5C 2837.29,337.29 2832.79,332.957 2827.5,329.5 Z"/></g>
<g><path style="opacity:1" fill="#a8877d" d="M 1748.5,315.5 C 1785.09,314.589 1805.92,332.255 1811,368.5C 1801.55,332.381 1778.71,318.881 1742.5,328C 1738.08,330.412 1734.25,333.578 1731,337.5C 1726.48,347.383 1722.15,357.383 1718,367.5C 1716.04,370.463 1713.71,373.129 1711,375.5C 1715.07,359.979 1720.73,344.979 1728,330.5C 1733.31,323.352 1740.14,318.352 1748.5,315.5 Z"/></g>
<g><path style="opacity:1" fill="#a8877d" d="M 567.5,315.5 C 588.312,314.161 602.479,323.161 610,342.5C 614.177,355.032 618.011,366.532 621.5,377C 613.511,368.74 608.345,358.907 606,347.5C 601.074,335.579 592.241,328.413 579.5,326C 551.307,323.01 532.474,334.843 523,361.5C 528.157,336.843 542.99,321.509 567.5,315.5 Z"/></g>
<g><path style="opacity:1" fill="#a8867c" d="M 2925.5,315.5 C 2960.39,316.891 2980.22,334.891 2985,369.5C 2975.28,332.89 2952.11,319.39 2915.5,329C 2908.95,332.555 2904.11,337.721 2901,344.5C 2898.54,354.547 2894.54,363.88 2889,372.5C 2887.26,374.954 2885.09,376.454 2882.5,377C 2884.05,375.786 2885.22,374.286 2886,372.5C 2890.11,357.499 2895.78,343.165 2903,329.5C 2909.08,322.385 2916.58,317.719 2925.5,315.5 Z"/></g>
<g><path style="opacity:0.962" fill="#553227" d="M 2222.5,377.5 C 2218.91,395.925 2207.91,403.425 2189.5,400C 2178.99,395.743 2170.32,389.076 2163.5,380C 2154.39,370.896 2143.72,364.23 2131.5,360C 2120.21,357.548 2109.54,359.215 2099.5,365C 2091.55,370.618 2083.88,376.618 2076.5,383C 2057.32,397.134 2036.32,400.468 2013.5,393C 2007.89,390.861 2002.55,388.194 1997.5,385C 1987.14,374.971 1977.14,364.637 1967.5,354C 1952.45,344.825 1936.78,343.492 1920.5,350C 1905.52,359.588 1900.35,373.088 1905,390.5C 1909.89,401.622 1914.23,412.955 1918,424.5C 1920.32,445.85 1910.82,455.683 1889.5,454C 1876.88,449.702 1869.71,440.869 1868,427.5C 1866.83,416.214 1868.66,405.547 1873.5,395.5C 1869.84,410.919 1871.01,425.919 1877,440.5C 1884.47,452.187 1893.47,453.52 1904,444.5C 1909.87,436.399 1911.87,427.399 1910,417.5C 1905.62,403.077 1900.96,388.744 1896,374.5C 1894.61,366.542 1894.28,358.542 1895,350.5C 1901.7,322.911 1918.53,313.078 1945.5,321C 1956.05,325.541 1964.88,332.374 1972,341.5C 1980.75,354.491 1990.59,366.657 2001.5,378C 2019.95,392.743 2039.61,394.409 2060.5,383C 2067.93,377.573 2074.76,371.407 2081,364.5C 2088.14,354.728 2096.31,345.895 2105.5,338C 2132.1,321.986 2154.6,326.486 2173,351.5C 2177.53,361.418 2181.86,371.418 2186,381.5C 2192.55,392.706 2201.71,395.539 2213.5,390C 2217.38,386.384 2220.38,382.217 2222.5,377.5 Z"/></g>
<g><path style="opacity:0.962" fill="#553227" d="M 3395.5,380.5 C 3391.86,397.327 3381.52,404.161 3364.5,401C 3353.01,396.918 3343.68,389.918 3336.5,380C 3327.82,371.655 3317.82,365.322 3306.5,361C 3293.95,357.978 3282.28,359.978 3271.5,367C 3262.5,374 3253.5,381 3244.5,388C 3217.8,401.928 3192.14,400.262 3167.5,383C 3160.07,374.145 3152.4,365.479 3144.5,357C 3126.74,344.304 3108.41,343.304 3089.5,354C 3078.99,363.197 3075.15,374.697 3078,388.5C 3083.24,400.973 3087.91,413.64 3092,426.5C 3093.78,447.385 3084.28,456.885 3063.5,455C 3051.31,450.803 3044.14,442.303 3042,429.5C 3040.57,417.527 3042.4,406.193 3047.5,395.5C 3043.76,411.265 3044.93,426.598 3051,441.5C 3056.52,450.532 3064.02,453.032 3073.5,449C 3084.71,438.14 3087.55,425.306 3082,410.5C 3076.25,396.912 3071.91,382.912 3069,368.5C 3065.77,348.149 3072.6,332.316 3089.5,321C 3109.71,315.845 3126.87,321.011 3141,336.5C 3151.41,350.912 3162.57,364.745 3174.5,378C 3180.54,383.019 3187.2,387.019 3194.5,390C 3217.69,393.714 3236.85,386.547 3252,368.5C 3259.91,358.529 3268.41,349.029 3277.5,340C 3281.84,336.828 3286.51,334.161 3291.5,332C 3314.98,325.493 3333.48,332.326 3347,352.5C 3351.33,362.5 3355.67,372.5 3360,382.5C 3362.17,386 3365,388.833 3368.5,391C 3380.76,395.872 3389.76,392.372 3395.5,380.5 Z"/></g>
<g><path style="opacity:0.961" fill="#553227" d="M 679.5,329.5 C 682.437,327.344 685.771,325.844 689.5,325C 711.818,320.831 732.151,325.331 750.5,338.5C 761.39,351.278 768.89,365.945 773,382.5C 776.682,409.928 776.015,437.262 771,464.5C 765.625,484.916 759.958,505.25 754,525.5C 750.368,540.282 750.701,554.949 755,569.5C 757.347,575.678 761.513,580.012 767.5,582.5C 771.118,585.356 775.118,586.023 779.5,584.5C 780.873,584.657 782.207,584.49 783.5,584C 797.66,574.216 802.827,560.716 799,543.5C 795.474,532.587 792.141,521.587 789,510.5C 779.822,471.298 782.488,432.964 797,395.5C 814.894,359.134 844.061,342.967 884.5,347C 902.687,350.854 912.854,362.021 915,380.5C 914.556,395.162 914.223,409.828 914,424.5C 914.707,426.081 915.54,427.581 916.5,429C 921.232,431.401 926.232,432.068 931.5,431C 938.841,427.993 944.674,423.16 949,416.5C 957.829,400.347 964.495,383.347 969,365.5C 971,361.5 973,357.5 975,353.5C 985.181,339.56 997.347,337.726 1011.5,348C 1035.33,368.813 1043.49,394.646 1036,425.5C 1032.03,438.999 1028.7,452.665 1026,466.5C 1024.63,476.134 1024.3,485.801 1025,495.5C 1027.43,507.103 1034.26,511.77 1045.5,509.5C 1047.97,509.346 1049.97,508.346 1051.5,506.5C 1055.47,504.281 1058.3,500.948 1060,496.5C 1065.14,481.578 1066.81,466.245 1065,450.5C 1062.36,435.784 1060.86,420.95 1060.5,406C 1060.12,395.112 1061.95,384.612 1066,374.5C 1075.23,353.093 1091.4,341.093 1114.5,338.5C 1130.37,341.605 1146.37,343.939 1162.5,345.5C 1177.26,343.938 1191.93,341.772 1206.5,339C 1221.29,335.93 1234.63,338.93 1246.5,348C 1267.28,366.564 1275.45,389.731 1271,417.5C 1269.05,432.46 1267.55,447.46 1266.5,462.5C 1265.85,475.496 1268.35,487.829 1274,499.5C 1275.41,502.409 1277.57,504.409 1280.5,505.5C 1283.69,508.925 1287.69,510.259 1292.5,509.5C 1298.2,509.234 1302.37,506.567 1305,501.5C 1308,487.211 1308,472.878 1305,458.5C 1301.67,445.196 1298.34,431.862 1295,418.5C 1289.57,385.207 1301.07,359.707 1329.5,342C 1336.2,339.463 1342.54,340.13 1348.5,344C 1355.41,349.303 1360.24,356.136 1363,364.5C 1367.5,382.342 1374.17,399.342 1383,415.5C 1386.5,420.333 1390.67,424.5 1395.5,428C 1398.54,429.923 1401.88,430.756 1405.5,430.5C 1410.05,431.041 1413.88,429.708 1417,426.5C 1418.02,422.068 1418.52,417.568 1418.5,413C 1417.57,400.841 1417.4,388.674 1418,376.5C 1419.61,365.447 1425.11,356.947 1434.5,351C 1456.68,342.782 1478.34,344.115 1499.5,355C 1521.3,368.823 1535.47,388.323 1542,413.5C 1550.29,445.73 1550.62,478.064 1543,510.5C 1539.47,521.429 1536.14,532.429 1533,543.5C 1532.33,549.833 1532.33,556.167 1533,562.5C 1535.51,572.915 1541.67,579.915 1551.5,583.5C 1555.65,584.92 1559.65,584.587 1563.5,582.5C 1568.72,580.124 1572.88,576.457 1576,571.5C 1580.81,557.482 1581.81,543.149 1579,528.5C 1573.41,509.23 1568.08,489.897 1563,470.5C 1557.24,445.82 1555.24,420.82 1557,395.5C 1559.19,373.795 1567.36,354.795 1581.5,338.5C 1599.24,324.98 1619.24,320.147 1641.5,324C 1646.01,324.99 1650.01,326.823 1653.5,329.5C 1657.21,333.05 1660.38,337.05 1663,341.5C 1667.58,352.587 1672.91,363.254 1679,373.5C 1682.31,377.818 1686.48,380.985 1691.5,383C 1705.72,384.974 1716.55,379.807 1724,367.5C 1728.09,356.88 1732.76,346.547 1738,336.5C 1741.06,333.386 1744.56,330.886 1748.5,329C 1761.59,326.251 1773.92,328.251 1785.5,335C 1800.6,346.685 1808.76,362.185 1810,381.5C 1809.11,423.826 1808.44,466.16 1808,508.5C 1808.7,517.03 1810.37,525.364 1813,533.5C 1814.72,538.549 1817.88,542.382 1822.5,545C 1835.07,547.109 1842.9,541.942 1846,529.5C 1848.5,514.942 1847.5,500.609 1843,486.5C 1836.62,468.068 1829.95,449.735 1823,431.5C 1816.02,407.239 1815.69,382.906 1822,358.5C 1825.46,346.403 1832.63,337.236 1843.5,331C 1867.07,322.285 1879.74,330.452 1881.5,355.5C 1880.71,369.312 1878.04,382.645 1873.5,395.5C 1875.3,387.932 1875.8,380.265 1875,372.5C 1871.27,360.551 1863.43,356.385 1851.5,360C 1837.06,367.331 1828.9,379.164 1827,395.5C 1825.52,410.432 1826.85,425.099 1831,439.5C 1836.53,455.771 1841.87,472.104 1847,488.5C 1850.03,499.999 1851.03,511.666 1850,523.5C 1845.68,547.407 1832.51,554.574 1810.5,545C 1800.12,536.704 1794.78,525.871 1794.5,512.5C 1797.73,491.509 1800.9,470.509 1804,449.5C 1805.39,422.019 1804.06,394.685 1800,367.5C 1796.8,354.961 1788.8,348.294 1776,347.5C 1764.5,348.505 1754.33,352.671 1745.5,360C 1736.5,367.667 1727.5,375.333 1718.5,383C 1705.53,391.856 1691.53,393.856 1676.5,389C 1665.05,383.777 1654.05,377.777 1643.5,371C 1611.98,357.951 1587.48,366.118 1570,395.5C 1560.99,413.225 1558.33,431.892 1562,451.5C 1562.95,457.914 1564.28,464.248 1566,470.5C 1572.67,489.177 1579.34,507.843 1586,526.5C 1590.79,544.12 1588.12,560.454 1578,575.5C 1567.75,588.7 1555.25,591.534 1540.5,584C 1527.15,571.938 1522.65,557.105 1527,539.5C 1532.61,525.945 1537.94,512.278 1543,498.5C 1546.91,469.696 1544.57,441.362 1536,413.5C 1531.19,396.688 1522.02,382.854 1508.5,372C 1480.94,356.399 1456.44,360.233 1435,383.5C 1427.49,395.375 1423.15,408.375 1422,422.5C 1417.16,432.334 1409.32,435.834 1398.5,433C 1392.85,432.006 1387.85,429.673 1383.5,426C 1376.17,418 1368.83,410 1361.5,402C 1347.73,392.446 1333.73,392.113 1319.5,401C 1307.7,411.993 1303.54,425.493 1307,441.5C 1309,452.835 1311,464.168 1313,475.5C 1316.49,492.063 1312.32,506.229 1300.5,518C 1291.41,522.092 1283.08,520.925 1275.5,514.5C 1264.74,504.388 1259.74,491.888 1260.5,477C 1262.39,458.991 1264.39,440.991 1266.5,423C 1266.19,407.568 1261.03,394.068 1251,382.5C 1226.12,355.326 1195.62,345.159 1159.5,352C 1117.97,349.346 1087.8,366.513 1069,403.5C 1067.31,409.749 1066.14,416.083 1065.5,422.5C 1067,437.845 1068.83,453.178 1071,468.5C 1074.44,487.839 1068.94,504.006 1054.5,517C 1040.04,524.958 1029.21,521.458 1022,506.5C 1018.7,497.097 1017.7,487.431 1019,477.5C 1022.04,462.61 1024.2,447.61 1025.5,432.5C 1025.85,409.679 1014.68,397.012 992,394.5C 984.602,395.411 977.768,397.911 971.5,402C 962.833,412 953.5,421.333 943.5,430C 934.767,434.946 925.767,435.613 916.5,432C 915,430.5 913.5,429 912,427.5C 909,416.517 906,405.517 903,394.5C 890.873,371.35 871.706,361.183 845.5,364C 827.625,367.852 814.125,377.685 805,393.5C 790.587,424.978 784.92,457.978 788,492.5C 791.411,506.731 796.411,520.398 803,533.5C 809.263,548.755 807.93,563.422 799,577.5C 785.043,593.102 770.709,593.435 756,578.5C 748.29,568.709 744.123,557.542 743.5,545C 744.306,535.637 746.139,526.47 749,517.5C 757.26,498.721 763.926,479.388 769,459.5C 775.513,432.558 770.846,407.892 755,385.5C 737.762,365.982 716.929,360.816 692.5,370C 680.993,376.588 669.326,382.921 657.5,389C 642.788,394.664 628.788,393.331 615.5,385C 605.208,377.043 595.208,368.71 585.5,360C 577.146,352.936 567.48,349.103 556.5,348.5C 543.456,349.033 535.289,355.7 532,368.5C 528.253,394.698 526.919,421.031 528,447.5C 530.094,466.97 533.094,486.303 537,505.5C 539.796,525.074 532.629,539.574 515.5,549C 494.81,552.674 483.643,543.84 482,522.5C 481.251,513.075 481.917,503.741 484,494.5C 489.065,476.306 494.732,458.306 501,440.5C 506.856,422.637 507.523,404.637 503,386.5C 498.328,371.653 488.494,362.653 473.5,359.5C 465.797,359.601 460.63,363.268 458,370.5C 456.494,375.746 456.161,381.079 457,386.5C 459.333,395.5 461.667,404.5 464,413.5C 466.611,428.333 462.445,440.833 451.5,451C 439.962,457.702 429.129,456.869 419,448.5C 414.025,441.595 412.358,433.928 414,425.5C 417.496,414.174 421.829,403.174 427,392.5C 432.339,364.177 420.672,348.844 392,346.5C 371.403,347.799 356.07,357.466 346,375.5C 324.847,396.662 300.014,402.496 271.5,393C 267.007,390.921 262.674,388.588 258.5,386C 248.73,377.562 238.397,369.896 227.5,363C 212.33,357.237 197.997,358.904 184.5,368C 174.611,374.622 165.944,382.622 158.5,392C 153.294,395.873 147.628,398.873 141.5,401C 124.475,404.161 114.142,397.327 110.5,380.5C 112.921,386.089 116.921,390.256 122.5,393C 132.736,394.798 140.569,391.298 146,382.5C 149.885,374.729 153.219,366.729 156,358.5C 166.278,337.443 183.112,327.943 206.5,330C 220.609,333.432 232.109,340.932 241,352.5C 249.125,364.293 258.959,374.459 270.5,383C 292.656,395.924 313.322,393.924 332.5,377C 344.026,363.441 355.193,349.608 366,335.5C 372.851,328.327 381.018,323.16 390.5,320C 413.745,315.037 428.911,323.87 436,346.5C 438,356.5 438,366.5 436,376.5C 432.007,387.823 428.007,399.157 424,410.5C 419.91,422.002 420.91,433.002 427,443.5C 434.647,453.309 442.981,453.975 452,445.5C 459.404,433.877 462.071,421.21 460,407.5C 457.317,393.433 454.317,379.433 451,365.5C 450.116,358.418 450.449,351.418 452,344.5C 456.4,332.556 464.9,327.056 477.5,328C 495.49,332.77 506.657,344.27 511,362.5C 515.223,382.419 515.556,402.419 512,422.5C 504.728,444.318 497.061,465.985 489,487.5C 484.695,501.289 483.695,515.289 486,529.5C 489.357,543.258 497.857,548.425 511.5,545C 516.876,539.565 520.376,533.065 522,525.5C 523.972,511.074 524.805,496.574 524.5,482C 523.116,448.841 522.282,415.674 522,382.5C 523.604,355.384 537.104,337.551 562.5,329C 575.287,326.066 586.121,329.233 595,338.5C 599.39,347.669 603.39,357.003 607,366.5C 609.412,370.916 612.578,374.749 616.5,378C 629.765,387.604 641.932,386.437 653,374.5C 659.388,364.391 664.721,353.724 669,342.5C 672.015,337.664 675.515,333.331 679.5,329.5 Z"/></g>
<g><path style="opacity:0.957" fill="#553227" d="M 2827.5,329.5 C 2830.81,333.656 2833.98,337.99 2837,342.5C 2841.58,353.587 2846.91,364.254 2853,374.5C 2856.36,378.759 2860.53,381.926 2865.5,384C 2880.45,385.442 2891.61,379.609 2899,366.5C 2902.45,356.935 2906.45,347.601 2911,338.5C 2913.54,335.628 2916.37,333.128 2919.5,331C 2936.39,326.193 2951.72,329.193 2965.5,340C 2976.92,352.584 2983.09,367.417 2984,384.5C 2982.67,427.485 2982,470.485 2982,513.5C 2982.62,521.532 2984.62,529.199 2988,536.5C 2989.78,540.612 2992.61,543.778 2996.5,546C 3007.84,547.752 3015.34,543.252 3019,532.5C 3022.53,517.35 3021.87,502.35 3017,487.5C 3011.89,471.949 3006.22,456.615 3000,441.5C 2989.91,413.474 2988.91,385.141 2997,356.5C 3000.59,346.58 3006.76,338.747 3015.5,333C 3034.25,322.808 3047.42,327.641 3055,347.5C 3056.27,361.386 3054.43,374.719 3049.5,387.5C 3051.54,376.777 3048.54,367.943 3040.5,361C 3027.84,357.901 3017.68,361.735 3010,372.5C 3000.83,388.005 2997.83,404.671 3001,422.5C 3005.78,442.849 3011.78,462.849 3019,482.5C 3024.64,498.935 3025.64,515.601 3022,532.5C 3014.52,550.504 3002.02,555.004 2984.5,546C 2972.08,535.748 2966.91,522.581 2969,506.5C 2972.65,487.261 2975.65,467.928 2978,448.5C 2979.02,423.417 2978.02,398.417 2975,373.5C 2969.76,350.128 2955.93,342.962 2933.5,352C 2927.66,355.418 2922,359.084 2916.5,363C 2905.91,373.924 2893.91,382.924 2880.5,390C 2869.73,393.47 2859.07,393.136 2848.5,389C 2836.67,382.921 2825.01,376.588 2813.5,370C 2782.5,359.889 2759,369.055 2743,397.5C 2732.72,421.709 2731.72,446.376 2740,471.5C 2746.95,490.403 2753.62,509.403 2760,528.5C 2764.79,546.831 2761.46,563.498 2750,578.5C 2735.29,593.435 2720.96,593.102 2707,577.5C 2698.57,563.557 2697.24,548.89 2703,533.5C 2707.61,523.282 2711.94,512.948 2716,502.5C 2721.63,467.873 2717.96,434.206 2705,401.5C 2689.4,368.616 2664.24,357.449 2629.5,368C 2616.61,373.893 2607.44,383.393 2602,396.5C 2599.74,406.96 2597.07,417.293 2594,427.5C 2588.57,433.866 2581.73,436.032 2573.5,434C 2568.86,433.121 2564.53,431.455 2560.5,429C 2551.52,420.357 2542.86,411.357 2534.5,402C 2520.07,392.418 2505.74,392.751 2491.5,403C 2480.96,414.526 2477.46,428.026 2481,443.5C 2483.26,454.789 2485.26,466.122 2487,477.5C 2489.91,493.046 2486.08,506.546 2475.5,518C 2467.29,522.806 2459.29,522.473 2451.5,517C 2437.06,504.006 2431.56,487.839 2435,468.5C 2437.07,453.52 2438.9,438.52 2440.5,423.5C 2440.4,410.021 2436.23,398.021 2428,387.5C 2412.45,367.137 2391.95,355.137 2366.5,351.5C 2335.27,360.943 2324.1,381.61 2333,413.5C 2338.16,435.798 2343.16,458.131 2348,480.5C 2351.13,494.866 2351.13,509.199 2348,523.5C 2341.17,541.169 2329.01,546.669 2311.5,540C 2303.12,532.744 2298.29,523.577 2297,512.5C 2296.09,502.065 2296.76,491.731 2299,481.5C 2305.27,461.229 2310.77,440.896 2315.5,420.5C 2315.49,425.215 2314.99,429.882 2314,434.5C 2309.47,453.771 2305.13,473.105 2301,492.5C 2300.33,498.833 2300.33,505.167 2301,511.5C 2302.96,521.128 2308.63,527.128 2318,529.5C 2325.9,527.946 2331.9,523.613 2336,516.5C 2341.91,503.1 2343.91,489.1 2342,474.5C 2337.8,454.043 2333.14,433.71 2328,413.5C 2326.11,404.576 2325.44,395.576 2326,386.5C 2329.25,364.759 2341.41,351.092 2362.5,345.5C 2362.5,344.5 2362.5,343.5 2362.5,342.5C 2371.93,340.771 2381.43,339.437 2391,338.5C 2404.26,339.25 2415.76,344.083 2425.5,353C 2442.21,371.632 2448.71,393.465 2445,418.5C 2443.06,433.959 2441.56,449.459 2440.5,465C 2439.96,477.493 2442.46,489.326 2448,500.5C 2449.41,503.409 2451.57,505.409 2454.5,506.5C 2455.9,507.89 2457.57,508.89 2459.5,509.5C 2471.72,512.117 2478.89,507.117 2481,494.5C 2481.73,485.13 2481.4,475.797 2480,466.5C 2476.31,449.075 2472.31,431.741 2468,414.5C 2465.02,387.631 2473.85,365.464 2494.5,348C 2508.52,337.879 2520.69,339.712 2531,353.5C 2537.7,367.307 2543.04,381.64 2547,396.5C 2551.38,408.108 2557.88,418.275 2566.5,427C 2570.37,429.581 2574.53,431.081 2579,431.5C 2585.1,432.154 2589.43,429.821 2592,424.5C 2592.03,410.15 2591.69,395.817 2591,381.5C 2592.46,366.387 2599.96,355.553 2613.5,349C 2657.12,340.561 2688.95,356.061 2709,395.5C 2719.72,421.772 2724.06,449.105 2722,477.5C 2720.15,500.223 2715.15,522.223 2707,543.5C 2706.33,549.833 2706.33,556.167 2707,562.5C 2709.21,573.288 2715.37,580.621 2725.5,584.5C 2729.66,586.001 2733.66,585.667 2737.5,583.5C 2743.82,580.679 2748.32,576.013 2751,569.5C 2755.3,554.946 2755.63,540.279 2752,525.5C 2747.33,508.833 2742.67,492.167 2738,475.5C 2731.29,449.243 2728.96,422.577 2731,395.5C 2733.04,373.439 2741.54,354.439 2756.5,338.5C 2760.43,335.193 2764.76,332.36 2769.5,330C 2788.83,321.645 2808.16,321.479 2827.5,329.5 Z"/></g>
<g><path style="opacity:1" fill="#a7867c" d="M 1202.5,325.5 C 1224.27,324.634 1242.1,332.634 1256,349.5C 1256.67,350.167 1256.67,350.833 1256,351.5C 1240.96,335.245 1222.46,329.078 1200.5,333C 1187.69,336.235 1174.69,338.402 1161.5,339.5C 1151.09,338.118 1140.76,336.285 1130.5,334C 1109.35,330.051 1091.52,335.884 1077,351.5C 1089.66,332.762 1107.49,324.596 1130.5,327C 1142.21,328.968 1153.71,331.802 1165,335.5C 1177.43,331.436 1189.93,328.103 1202.5,325.5 Z"/></g>
<g><path style="opacity:1" fill="#a9887e" d="M 1446.5,326.5 C 1485.73,323.862 1513.9,340.195 1531,375.5C 1532.15,377.754 1532.48,380.087 1532,382.5C 1509.64,347.596 1478.14,334.762 1437.5,344C 1422.12,347.375 1413.95,356.875 1413,372.5C 1412.67,388.167 1412.33,403.833 1412,419.5C 1409.82,426.711 1405.32,428.877 1398.5,426C 1390.7,420.086 1385.37,412.419 1382.5,403C 1391.24,406.547 1397.08,403.713 1400,394.5C 1395.72,357.995 1411.22,335.328 1446.5,326.5 Z"/></g>
<g><path style="opacity:1" fill="#a6857b" d="M 2362.5,336.5 C 2362.23,333.881 2362.56,331.381 2363.5,329C 2390.77,322.035 2413.11,329.535 2430.5,351.5C 2430.33,351.833 2430.17,352.167 2430,352.5C 2411.02,333.3 2388.52,327.966 2362.5,336.5 Z"/></g>
<g><path style="opacity:1" fill="#a9887e" d="M 864.5,326.5 C 887.736,324.875 907.236,332.541 923,349.5C 926.137,354.108 928.47,359.108 930,364.5C 930.333,373.833 930.667,383.167 931,392.5C 932.139,395.583 933.472,398.583 935,401.5C 935.903,402.701 937.069,403.535 938.5,404C 942.241,404.502 945.908,404.502 949.5,404C 947.42,407.237 945.92,410.737 945,414.5C 942.5,417.667 940,420.833 937.5,424C 932.327,428.303 927.161,428.469 922,424.5C 921.333,423.167 920.667,421.833 920,420.5C 919.667,404.833 919.333,389.167 919,373.5C 919.298,365.054 916.464,357.887 910.5,352C 870.896,333.073 836.396,339.906 807,372.5C 804.417,375.997 802.084,379.664 800,383.5C 800.527,377.419 802.527,371.753 806,366.5C 819.547,344.321 839.047,330.987 864.5,326.5 Z"/></g>
<g><path style="opacity:0.947" fill="#553227" d="M 2315.5,420.5 C 2317.66,400.13 2313.16,381.464 2302,364.5C 2283.17,342.196 2261.34,338.363 2236.5,353C 2232.2,357.45 2228.54,362.283 2225.5,367.5C 2225.75,353.491 2231.42,342.324 2242.5,334C 2264.28,322.809 2283.45,326.309 2300,344.5C 2316.71,367.481 2321.87,392.814 2315.5,420.5 Z"/></g>
<g><path style="opacity:1" fill="#a9887e" d="M 2624.5,326.5 C 2662.06,326.025 2688.9,342.692 2705,376.5C 2706.15,378.754 2706.48,381.087 2706,383.5C 2684.27,349.392 2653.43,336.225 2613.5,344C 2604.28,345.85 2596.78,350.35 2591,357.5C 2588.3,362.125 2586.96,367.125 2587,372.5C 2586.67,388.5 2586.33,404.5 2586,420.5C 2583.26,427.546 2578.42,429.38 2571.5,426C 2564.25,420.159 2559.25,412.825 2556.5,404C 2560.09,404.502 2563.76,404.502 2567.5,404C 2571.92,400.676 2574.42,396.176 2575,390.5C 2570.81,365.39 2579.64,346.556 2601.5,334C 2609.04,330.708 2616.7,328.208 2624.5,326.5 Z"/></g>
<g><path style="opacity:0.95" fill="#553227" d="M 107.5,370.5 C 97.4669,350.15 81.1335,341.983 58.5,346C 35.6117,354.23 22.1117,370.396 18,394.5C 15.3748,411.465 16.7081,428.131 22,444.5C 26.6229,458.326 30.6229,472.326 34,486.5C 35.4827,495.787 35.816,505.121 35,514.5C 33.515,524.639 29.015,533.139 21.5,540C 14.5198,544.434 7.1865,545.267 -0.5,542.5C -0.5,535.833 -0.5,529.167 -0.5,522.5C 13.9507,534.18 24.4507,531.18 31,513.5C 31.6667,506.5 31.6667,499.5 31,492.5C 26.1558,469.458 21.1558,446.458 16,423.5C 14.053,408.496 14.053,393.496 16,378.5C 20.7146,357.193 32.5479,341.36 51.5,331C 84.5511,323.697 103.218,336.864 107.5,370.5 Z"/></g>
<g><path style="opacity:0.952" fill="#553227" d="M 3488.5,427.5 C 3492.33,405.115 3488.16,384.448 3476,365.5C 3457.91,343.349 3436.41,339.183 3411.5,353C 3405.55,357.778 3401.22,363.611 3398.5,370.5C 3402.77,336.869 3421.43,323.703 3454.5,331C 3472.25,340.427 3483.75,354.927 3489,374.5C 3492.44,392.341 3492.27,410.008 3488.5,427.5 Z"/></g>
<g><path style="opacity:1" fill="#a9887e" d="M 1292.5,509.5 C 1287.69,510.259 1283.69,508.925 1280.5,505.5C 1277.03,500.627 1275.7,495.127 1276.5,489C 1278.92,474.444 1280.59,459.778 1281.5,445C 1280.15,427.183 1279.65,409.35 1280,391.5C 1281.91,378.421 1286.58,366.421 1294,355.5C 1301.55,344.289 1311.71,336.456 1324.5,332C 1334.35,330.3 1343.02,332.633 1350.5,339C 1345.99,337.724 1341.32,337.391 1336.5,338C 1320.78,343.274 1308.28,352.774 1299,366.5C 1286.64,387.308 1282.97,409.642 1288,433.5C 1291.93,448.613 1296.26,463.613 1301,478.5C 1301.99,486.651 1301.32,494.651 1299,502.5C 1297.31,505.358 1295.14,507.691 1292.5,509.5 Z"/></g>
<g><path style="opacity:1" fill="#a9887e" d="M 1051.5,506.5 C 1049.97,508.346 1047.97,509.346 1045.5,509.5C 1041.48,510.1 1037.98,509.1 1035,506.5C 1029.73,495.512 1029.06,484.179 1033,472.5C 1037.08,460.27 1040.74,447.937 1044,435.5C 1044.98,428.035 1045.48,420.535 1045.5,413C 1045.97,387.614 1036.64,366.614 1017.5,350C 1007.27,341.476 995.6,337.809 982.5,339C 984.657,337.088 986.991,335.421 989.5,334C 1002.36,330.511 1014.02,332.844 1024.5,341C 1043.54,358.249 1052.87,379.749 1052.5,405.5C 1051.49,421.829 1050.99,438.162 1051,454.5C 1052.96,465.783 1054.46,477.116 1055.5,488.5C 1056.22,495.056 1054.89,501.056 1051.5,506.5 Z"/></g>
<g><path style="opacity:1" fill="#a9887e" d="M 2459.5,509.5 C 2457.57,508.89 2455.9,507.89 2454.5,506.5C 2451.22,501.556 2449.55,496.056 2449.5,490C 2451.33,478.161 2453.17,466.327 2455,454.5C 2454.05,433.52 2453.72,412.52 2454,391.5C 2457.94,368.771 2469.11,350.605 2487.5,337C 2498.84,331.052 2510.17,331.052 2521.5,337C 2523.26,337.72 2524.09,338.887 2524,340.5C 2519.34,338.65 2514.51,338.15 2509.5,339C 2488.67,346.171 2474.17,360.004 2466,380.5C 2459.39,401.594 2458.72,422.927 2464,444.5C 2467.86,456.429 2471.53,468.429 2475,480.5C 2475.76,486.891 2475.42,493.224 2474,499.5C 2472.52,507.66 2467.68,510.993 2459.5,509.5 Z"/></g>
<g><path style="opacity:1" fill="#a7857b" d="M 2362.5,336.5 C 2362.72,337.675 2362.39,338.675 2361.5,339.5C 2359.19,340.497 2356.86,340.997 2354.5,341C 2357.03,339.235 2359.7,337.735 2362.5,336.5 Z"/></g>
<g><path style="opacity:0.936" fill="#563327" d="M -0.5,367.5 C 2.10545,371.05 3.93878,375.05 5,379.5C 7.23132,397.688 5.39798,415.355 -0.5,432.5C -0.5,424.5 -0.5,416.5 -0.5,408.5C 0.518418,403.525 1.18508,398.358 1.5,393C 1.51373,389.24 0.847058,385.74 -0.5,382.5C -0.5,377.5 -0.5,372.5 -0.5,367.5 Z"/></g>
<g><path style="opacity:1" fill="#916d62" d="M 2987.5,438.5 C 2986.83,438.167 2986.17,437.833 2985.5,437.5C 2985.67,432.804 2986.17,428.137 2987,423.5C 2987.5,428.489 2987.67,433.489 2987.5,438.5 Z"/></g>
<g><path style="opacity:0.895" fill="#563227" d="M 3488.5,427.5 C 3488.66,430.518 3488.5,433.518 3488,436.5C 3483.8,453.444 3479.8,470.444 3476,487.5C 3474.58,496.125 3474.25,504.792 3475,513.5C 3478.34,526.713 3486.51,531.713 3499.5,528.5C 3499.5,533.5 3499.5,538.5 3499.5,543.5C 3491.2,544.273 3484.36,541.273 3479,534.5C 3470.98,521.595 3468.31,507.595 3471,492.5C 3471.56,488.814 3472.23,485.147 3473,481.5C 3478.5,463.467 3483.67,445.467 3488.5,427.5 Z"/></g>
<g><path style="opacity:1" fill="#a9887e" d="M 518.5,433.5 C 520.414,439.081 521.58,445.081 522,451.5C 523.046,474.895 522.38,498.228 520,521.5C 518.788,528.427 515.621,534.26 510.5,539C 503.915,542.042 498.748,540.542 495,534.5C 493.566,530.594 493.233,526.594 494,522.5C 501.835,505.832 508.835,488.832 515,471.5C 517.098,458.917 518.265,446.25 518.5,433.5 Z"/></g>
<g><path style="opacity:1" fill="#a9887d" d="M 1812.5,429.5 C 1813.57,442.742 1815.07,456.075 1817,469.5C 1818.69,475.608 1820.69,481.608 1823,487.5C 1828.56,498.608 1833.56,509.942 1838,521.5C 1840.7,531.434 1837.2,537.767 1827.5,540.5C 1822.39,539.232 1818.56,536.232 1816,531.5C 1813.24,525.47 1811.58,519.137 1811,512.5C 1808.61,484.749 1809.11,457.082 1812.5,429.5 Z"/></g>
<g><path style="opacity:1" fill="#a9887e" d="M 2326.5,430.5 C 2330.17,446.151 2334.33,461.818 2339,477.5C 2341.83,494.961 2337.33,510.128 2325.5,523C 2317.73,527.835 2313.06,525.835 2311.5,517C 2311.61,514.268 2312.45,511.768 2314,509.5C 2320.2,502.968 2325.2,495.635 2329,487.5C 2329.61,482.511 2330.11,477.511 2330.5,472.5C 2328.95,458.515 2327.61,444.515 2326.5,430.5 Z"/></g>
<g><path style="opacity:1" fill="#a9887e" d="M 2985.5,437.5 C 2986.17,437.833 2986.83,438.167 2987.5,438.5C 2987.51,451.757 2989.34,464.757 2993,477.5C 2997.23,489.971 3002.57,501.971 3009,513.5C 3012.04,519.527 3013.04,525.86 3012,532.5C 3009.12,539.855 3003.96,542.188 2996.5,539.5C 2988.77,532.642 2984.94,523.976 2985,513.5C 2982.88,488.132 2983.04,462.798 2985.5,437.5 Z"/></g>
<g><path style="opacity:1" fill="#a9887e" d="M -0.5,516.5 C -0.5,495.833 -0.5,475.167 -0.5,454.5C 2.08882,447.14 3.92216,439.473 5,431.5C 5.07504,442.573 4.07504,453.573 2,464.5C 0.285312,475.716 1.95198,486.383 7,496.5C 11.2403,501.317 15.2403,506.317 19,511.5C 19.9847,513.366 20.4847,515.366 20.5,517.5C 18.5239,527.075 13.5239,528.908 5.5,523C 3.59981,520.665 1.59981,518.498 -0.5,516.5 Z"/></g>
<g><path style="opacity:1" fill="#a9887e" d="M 1563.5,582.5 C 1559.65,584.587 1555.65,584.92 1551.5,583.5C 1549.19,582.023 1547.36,580.023 1546,577.5C 1544.47,571.585 1544.14,565.585 1545,559.5C 1556.85,530.229 1561.19,499.896 1558,468.5C 1567.56,493.85 1573.4,520.017 1575.5,547C 1576.54,560.702 1572.54,572.535 1563.5,582.5 Z"/></g>
<g><path style="opacity:1" fill="#a9887e" d="M 2737.5,583.5 C 2733.66,585.667 2729.66,586.001 2725.5,584.5C 2717.89,577.74 2715.73,569.407 2719,559.5C 2730.41,530.511 2734.74,500.511 2732,469.5C 2744.25,499.673 2749.58,531.006 2748,563.5C 2746.32,571.205 2742.82,577.872 2737.5,583.5 Z"/></g>
<g><path style="opacity:1" fill="#aa897f" d="M 779.5,584.5 C 775.118,586.023 771.118,585.356 767.5,582.5C 762.76,577.02 759.593,570.687 758,563.5C 756.31,531.305 761.644,500.305 774,470.5C 772.082,492.755 773.749,514.755 779,536.5C 783.371,546.44 786.204,556.774 787.5,567.5C 788.647,575.096 785.98,580.763 779.5,584.5 Z"/></g>
<g><path style="opacity:1" fill="#a9887e" d="M 3499.5,496.5 C 3499.5,505.5 3499.5,514.5 3499.5,523.5C 3495.33,527.435 3491.16,527.435 3487,523.5C 3484.63,518.09 3485.3,513.09 3489,508.5C 3492.37,504.307 3495.87,500.307 3499.5,496.5 Z"/></g>
</svg>
