<?xml version="1.0" encoding="UTF-8"?>
<!DOCTYPE svg PUBLIC "-//W3C//DTD SVG 1.1//EN" "http://www.w3.org/Graphics/SVG/1.1/DTD/svg11.dtd">
<svg xmlns="http://www.w3.org/2000/svg" version="1.1" width="800px" height="200px" style="shape-rendering:geometricPrecision; text-rendering:geometricPrecision; image-rendering:optimizeQuality; fill-rule:evenodd; clip-rule:evenodd" xmlns:xlink="http://www.w3.org/1999/xlink">
<g><path style="opacity:1" fill="#0b0b0a" d="M 780.5,37.5 C 780.667,72.8349 780.5,108.168 780,143.5C 777.663,157.506 769.829,167.006 756.5,172C 514.195,173.661 271.862,173.994 29.5,173C 24.4138,172.529 19.9138,170.695 16,167.5C 15.6012,167.728 15.4346,168.062 15.5,168.5C 7.72969,163.557 2.89636,156.557 1,147.5C 0.333333,109.5 0.333333,71.5 1,33.5C 4.94191,19.891 13.7752,11.391 27.5,8C 269.5,7.33333 511.5,7.33333 753.5,8C 768.952,11.9513 777.952,21.7846 780.5,37.5 Z"/></g>
<g><path style="opacity:1" fill="#fefefe" d="M 29.5,13.5 C 269.834,13.3333 510.167,13.5 750.5,14C 762.798,16.2984 770.631,23.4651 774,35.5C 774.667,72.1667 774.667,108.833 774,145.5C 770.86,156.64 763.693,163.807 752.5,167C 511.167,167.667 269.833,167.667 28.5,167C 17.3333,163.833 10.1667,156.667 7,145.5C 6.33333,108.833 6.33333,72.1667 7,35.5C 10.4293,23.903 17.9293,16.5696 29.5,13.5 Z"/></g>
<g><path style="opacity:0.999" fill="#c18f50" d="M 780.5,37.5 C 787.991,42.1135 792.824,48.7801 795,57.5C 795.667,95.5 795.667,133.5 795,171.5C 791.167,184.667 782.667,193.167 769.5,197C 526.833,197.667 284.167,197.667 41.5,197C 27.0621,192.73 18.3955,183.23 15.5,168.5C 15.4346,168.062 15.6012,167.728 16,167.5C 19.9138,170.695 24.4138,172.529 29.5,173C 271.862,173.994 514.195,173.661 756.5,172C 769.829,167.006 777.663,157.506 780,143.5C 780.5,108.168 780.667,72.8349 780.5,37.5 Z"/></g>
</svg>
