<?xml version="1.0" encoding="UTF-8"?>
<!DOCTYPE svg PUBLIC "-//W3C//DTD SVG 1.1//EN" "http://www.w3.org/Graphics/SVG/1.1/DTD/svg11.dtd">
<svg xmlns="http://www.w3.org/2000/svg" version="1.1" width="1500px" height="200px" style="shape-rendering:geometricPrecision; text-rendering:geometricPrecision; image-rendering:optimizeQuality; fill-rule:evenodd; clip-rule:evenodd" xmlns:xlink="http://www.w3.org/1999/xlink">
<g><path style="opacity:0.894" fill="#faf9f8" d="M 1460.5,15.5 C 1467.09,15.2307 1473.42,16.3974 1479.5,19C 1481.07,21.3041 1482.24,23.8041 1483,26.5C 1483.23,30.32 1484.07,33.9867 1485.5,37.5C 1491.68,38.1848 1495.52,41.5181 1497,47.5C 1498.89,54.1904 1498.89,60.8571 1497,67.5C 1494.17,70.0032 1491.01,70.8366 1487.5,70C 1490.77,74.2397 1492.61,79.0731 1493,84.5C 1493.06,99.168 1493.06,113.835 1493,128.5C 1494.28,133.493 1495.44,138.493 1496.5,143.5C 1485.82,145.343 1475.32,144.676 1465,141.5C 1456.16,147.529 1447.16,147.862 1438,142.5C 1430.19,145.718 1422.03,147.051 1413.5,146.5C 1413.78,131.804 1413.28,117.137 1412,102.5C 1408.47,85.8171 1405.97,68.9837 1404.5,52C 1404.79,47.1456 1405.29,42.3123 1406,37.5C 1408.2,32.299 1412.04,28.799 1417.5,27C 1424.66,24.7627 1431.99,23.596 1439.5,23.5C 1438.71,31.8237 1438.54,40.1571 1439,48.5C 1440.1,41.8995 1443.93,38.2329 1450.5,37.5C 1447.91,27.3548 1451.24,20.0215 1460.5,15.5 Z M 1439.5,61.5 C 1440.89,64.7332 1443.23,67.2332 1446.5,69C 1449.03,68.204 1451.7,67.8707 1454.5,68C 1452.28,69.2684 1450.28,70.7684 1448.5,72.5C 1455.38,82.4132 1457.88,93.4132 1456,105.5C 1455.75,108.754 1454.75,111.754 1453,114.5C 1451.3,115.406 1449.47,115.739 1447.5,115.5C 1444.62,97.5333 1441.95,79.5333 1439.5,61.5 Z"/></g>
<g><path style="opacity:1" fill="#582d12" d="M 1461.5,20.5 C 1466.59,20.3647 1471.42,21.3647 1476,23.5C 1476.67,24.8333 1477.33,26.1667 1478,27.5C 1478.5,32.4889 1478.67,37.4889 1478.5,42.5C 1487.24,41.3168 1492.07,44.9834 1493,53.5C 1493.67,56.8333 1493.67,60.1667 1493,63.5C 1486.63,62.5845 1480.13,62.5845 1473.5,63.5C 1472.52,63.0233 1471.69,62.3567 1471,61.5C 1469.71,56.89 1469.38,52.2233 1470,47.5C 1471.5,46 1473,44.5 1474.5,43C 1469.71,40.4425 1464.71,39.9425 1459.5,41.5C 1457.65,40.8113 1456.48,39.478 1456,37.5C 1453.86,30.2641 1455.69,24.5974 1461.5,20.5 Z"/></g>
<g><path style="opacity:0.894" fill="#faf9f8" d="M 278.5,23.5 C 281.167,23.5 283.833,23.5 286.5,23.5C 285.005,32.7816 284.505,42.1149 285,51.5C 286.742,69.6154 289.242,87.6154 292.5,105.5C 300.686,108.637 309.186,110.304 318,110.5C 325.624,110.515 332.791,108.682 339.5,105C 327.784,103.25 317.117,99.0835 307.5,92.5C 303.222,87.6603 301.555,81.9937 302.5,75.5C 303.174,49.3234 313.174,44.8234 332.5,62C 349.848,73.0037 368.848,79.0037 389.5,80C 396.854,82.8832 400.521,88.3832 400.5,96.5C 400.039,101.902 398.706,107.069 396.5,112C 398.046,114.386 400.046,114.886 402.5,113.5C 406.174,106.649 407.341,99.3155 406,91.5C 405.438,84.4673 402.938,78.3006 398.5,73C 401.79,70.0159 405.457,67.5159 409.5,65.5C 406.716,63.8858 404.882,61.5524 404,58.5C 400.733,37.5108 409.233,30.8441 429.5,38.5C 433.05,43.5651 434.717,49.2318 434.5,55.5C 434.626,58.8701 433.96,62.0368 432.5,65C 435.667,66.8333 438.167,69.3333 440,72.5C 444.396,86.6544 445.229,100.988 442.5,115.5C 442.833,116.167 443.167,116.833 443.5,117.5C 446.692,117.139 448.859,115.472 450,112.5C 452.454,105.353 453.954,98.02 454.5,90.5C 463.552,91.5087 472.552,92.8421 481.5,94.5C 481.67,95.8221 481.337,96.9887 480.5,98C 485.19,102.027 489.19,106.694 492.5,112C 494.167,113 495.833,114 497.5,115C 501.853,115.86 504.353,114.026 505,109.5C 508.136,95.736 505.636,83.236 497.5,72C 501.833,69.5 506.167,67 510.5,64.5C 504.933,57.0352 504.099,49.0352 508,40.5C 512.228,35.9131 517.394,34.4131 523.5,36C 530.633,36.1295 534.8,39.6295 536,46.5C 537.815,52.1872 537.815,57.8538 536,63.5C 535.167,64.3333 534.333,65.1667 533.5,66C 537.973,69.7671 540.807,74.6005 542,80.5C 542.706,85.3123 543.206,90.1456 543.5,95C 542.478,107.156 542.311,119.322 543,131.5C 544.477,135.43 545.644,139.43 546.5,143.5C 535.822,145.343 525.322,144.676 515,141.5C 510.253,144.457 505.086,146.123 499.5,146.5C 492.165,145.697 484.832,144.863 477.5,144C 472.695,143.233 468.361,141.4 464.5,138.5C 454.503,143.752 443.836,146.086 432.5,145.5C 432.595,141.775 432.762,138.109 433,134.5C 421.327,146.144 407.827,148.644 392.5,142C 385.543,136.261 379.876,129.428 375.5,121.5C 368.661,125.752 361.994,130.252 355.5,135C 360.337,137.123 365.004,136.957 369.5,134.5C 376.524,137.825 379.857,143.492 379.5,151.5C 377.45,165.028 369.784,169.862 356.5,166C 350.361,165.194 346.861,161.694 346,155.5C 344.769,150.285 344.269,145.285 344.5,140.5C 326.37,147.66 308.536,146.993 291,138.5C 281.895,144.723 271.729,147.39 260.5,146.5C 260.111,133.165 259.611,119.832 259,106.5C 256.558,92.1839 254.225,77.8505 252,63.5C 251.333,55.8333 251.333,48.1667 252,40.5C 252.633,35.3884 255.133,31.555 259.5,29C 265.679,26.2075 272.013,24.3742 278.5,23.5 Z"/></g>
<g><path style="opacity:1" fill="#572b10" d="M 273.5,140.5 C 270.833,140.5 268.167,140.5 265.5,140.5C 265.827,130.319 265.494,120.319 264.5,110.5C 263.302,97.0104 261.135,83.6771 258,70.5C 256.371,59.4658 256.371,48.4658 258,37.5C 264.191,30.9112 271.691,28.5779 280.5,30.5C 279.331,42.1468 279.498,53.8135 281,65.5C 283.286,79.8821 285.786,94.2154 288.5,108.5C 305.962,117.173 323.629,117.673 341.5,110C 346.167,107.333 350.833,104.667 355.5,102C 341.675,100.544 328.342,97.2104 315.5,92C 313.04,90.5422 310.873,88.7089 309,86.5C 307.504,79.9008 307.171,73.2342 308,66.5C 308.936,62.7926 310.769,59.6259 313.5,57C 314.833,56.3333 316.167,56.3333 317.5,57C 338.462,74.8818 362.795,84.5485 390.5,86C 393.91,89.0459 395.244,92.8792 394.5,97.5C 395.021,103.271 393.354,108.271 389.5,112.5C 393.087,119.447 398.42,121.28 405.5,118C 407.894,116.048 409.394,113.548 410,110.5C 411.478,102.889 411.812,95.222 411,87.5C 410.134,82.5584 408.3,78.0584 405.5,74C 413.932,67.9915 422.932,66.9915 432.5,71C 434.041,72.5793 435.208,74.4127 436,76.5C 439.279,91.1809 439.279,105.848 436,120.5C 427.399,139.219 413.565,144.719 394.5,137C 387.416,130.277 381.583,122.777 377,114.5C 366.596,120.619 356.429,127.119 346.5,134C 332.351,140.861 317.685,142.194 302.5,138C 297.84,136.005 293.506,133.505 289.5,130.5C 286.019,136.621 280.686,139.955 273.5,140.5 Z"/></g>
<g><path style="opacity:1" fill="#582c11" d="M 1422.5,140.5 C 1421.5,140.5 1420.5,140.5 1419.5,140.5C 1419.82,135.968 1419.48,131.634 1418.5,127.5C 1418.67,119.826 1418.5,112.159 1418,104.5C 1415.79,91.8007 1413.46,79.134 1411,66.5C 1410.33,57.1667 1410.33,47.8333 1411,38.5C 1416.84,31.7122 1424.34,28.7122 1433.5,29.5C 1433.33,40.1719 1433.5,50.8385 1434,61.5C 1436.84,80.5255 1439.84,99.5255 1443,118.5C 1451.42,122.79 1457.09,120.456 1460,111.5C 1461.48,103.889 1461.81,96.222 1461,88.5C 1460.03,82.96 1458.7,77.6266 1457,72.5C 1466.37,65.5286 1475.37,65.8619 1484,73.5C 1485.72,76.674 1487.06,80.0073 1488,83.5C 1488.54,95.5058 1488.37,107.506 1487.5,119.5C 1487.41,125.932 1488.08,132.265 1489.5,138.5C 1482.82,139.818 1476.15,139.652 1469.5,138C 1467.7,137.028 1466.03,135.861 1464.5,134.5C 1456.36,142.809 1447.69,143.476 1438.5,136.5C 1433.48,139.089 1428.14,140.422 1422.5,140.5 Z"/></g>
<g><path style="opacity:0.894" fill="#faf9f8" d="M 770.5,36.5 C 776.866,36.2732 783.032,37.2732 789,39.5C 797.829,35.3825 806.496,35.7158 815,40.5C 818.336,48.4626 819.336,56.7959 818,65.5C 817.167,67.6667 815.667,69.1667 813.5,70C 815.887,76.2622 817.387,82.7622 818,89.5C 818.474,98.5253 818.474,107.525 818,116.5C 821.743,120.228 826.243,121.728 831.5,121C 829.715,96.594 840.715,81.094 864.5,74.5C 862.726,62.5522 867.393,54.0522 878.5,49C 893.808,43.2141 909.142,43.2141 924.5,49C 939.992,55.16 949.825,66.3266 954,82.5C 956.393,92.5117 956.56,102.512 954.5,112.5C 954.833,113.167 955.167,113.833 955.5,114.5C 956.814,113.687 957.981,112.687 959,111.5C 962.27,101.848 962.27,92.1817 959,82.5C 957.166,78.7419 955.5,75.0753 954,71.5C 962.989,64.378 973.155,61.878 984.5,64C 990.344,67.1632 994.177,71.9965 996,78.5C 996.983,84.1198 997.483,89.7865 997.5,95.5C 995.274,111.116 996.274,126.449 1000.5,141.5C 995.823,141.835 991.156,142.335 986.5,143C 988.395,151.444 987.562,159.611 984,167.5C 979.842,170.44 975.175,171.773 970,171.5C 959.761,171.761 954.594,166.761 954.5,156.5C 954.49,152.373 955.49,148.54 957.5,145C 950.022,144.569 943.688,141.736 938.5,136.5C 916.025,153.996 891.525,157.663 865,147.5C 851.898,152.076 838.398,153.909 824.5,153C 815.368,151.185 807.868,146.685 802,139.5C 788.943,147.447 775.777,147.447 762.5,139.5C 757.754,151.407 751.92,162.741 745,173.5C 735.053,183.945 723.22,186.778 709.5,182C 705.421,179.925 701.921,177.092 699,173.5C 693.528,174.756 688.695,173.422 684.5,169.5C 677.35,176.005 670.184,176.005 663,169.5C 661.202,166.322 659.702,162.988 658.5,159.5C 634.558,177.64 610.225,178.14 585.5,161C 569.782,145.629 565.282,127.462 572,106.5C 577.185,94.1446 586.352,86.8113 599.5,84.5C 603.226,84.9277 606.559,86.261 609.5,88.5C 609.469,83.6718 609.635,78.6718 610,73.5C 610.165,66.3235 613.665,63.1568 620.5,64C 623.715,65.7743 627.048,67.2743 630.5,68.5C 635.305,66.1526 638.472,67.8193 640,73.5C 640.333,77.5 640.667,81.5 641,85.5C 651.011,81.2257 660.844,81.7257 670.5,87C 670.957,87.414 671.291,87.914 671.5,88.5C 669.784,91.0954 668.784,93.9287 668.5,97C 669.361,103.806 669.694,110.639 669.5,117.5C 672.568,117.453 675.568,116.953 678.5,116C 679.097,114.938 679.43,113.772 679.5,112.5C 677.445,101.951 674.945,91.6179 672,81.5C 680.981,78.463 690.148,76.1297 699.5,74.5C 703.431,86.8906 706.097,99.5573 707.5,112.5C 707.778,127.804 700.778,137.97 686.5,143C 680.062,143.774 673.729,144.941 667.5,146.5C 673.903,145.331 679.57,146.998 684.5,151.5C 694.568,143.772 702.734,145.439 709,156.5C 719.558,143.053 727.224,128.053 732,111.5C 734.632,99.5246 733.799,87.858 729.5,76.5C 745.504,72.1007 757.337,77.1007 765,91.5C 766.608,98.1593 768.108,104.826 769.5,111.5C 775.654,116.248 779.154,114.582 780,106.5C 782.522,93.9324 780.022,82.599 772.5,72.5C 774.493,70.5014 776.827,69.0014 779.5,68C 776.055,66.1129 772.889,66.6129 770,69.5C 763.085,65.8443 759.918,60.0109 760.5,52C 760.452,44.5833 763.786,39.4167 770.5,36.5 Z M 896.5,76.5 C 914.459,75.9585 922.626,84.6252 921,102.5C 919.547,108.285 916.214,112.619 911,115.5C 913.751,99.6194 908.584,87.1194 895.5,78C 896.056,77.6174 896.389,77.1174 896.5,76.5 Z M 612.5,91.5 C 615.907,93.4734 619.574,94.9734 623.5,96C 626.916,96.8933 630.083,96.3933 633,94.5C 631.924,106.819 633.091,118.986 636.5,131C 632.594,135.789 627.428,137.956 621,137.5C 611.343,137.173 603.676,133.173 598,125.5C 597.153,122.412 597.653,119.579 599.5,117C 602.648,115.395 605.981,114.395 609.5,114C 613.717,111.864 615.717,108.364 615.5,103.5C 614.924,99.3588 613.924,95.3588 612.5,91.5 Z M 873.5,97.5 C 874.496,97.4142 875.329,97.7476 876,98.5C 877.917,105.527 876.917,112.194 873,118.5C 871.987,120.846 870.321,122.513 868,123.5C 866.347,123.18 865.347,122.18 865,120.5C 863.804,111.247 866.637,103.58 873.5,97.5 Z M 968.5,139.5 C 974.683,140.351 974.849,141.351 969,142.5C 965.993,142.001 965.826,141.001 968.5,139.5 Z"/></g>
<g><path style="opacity:1" fill="#5d3218" d="M 413.5,40.5 C 427.801,40.2209 432.801,47.0543 428.5,61C 422.252,60.1432 415.919,59.3098 409.5,58.5C 405.774,51.1609 407.107,45.1609 413.5,40.5 Z"/></g>
<g><path style="opacity:1" fill="#5a2f15" d="M 516.5,40.5 C 521.59,39.9682 526.09,41.3016 530,44.5C 531.404,50.0438 531.904,55.7104 531.5,61.5C 525.747,59.4229 519.914,59.0896 514,60.5C 510.973,55.9966 509.973,50.9966 511,45.5C 512.73,43.5981 514.563,41.9314 516.5,40.5 Z"/></g>
<g><path style="opacity:0.898" fill="#faf9f8" d="M -0.5,48.5 C -0.5,48.1667 -0.5,47.8333 -0.5,47.5C 10.956,41.5544 22.6227,41.0544 34.5,46C 38.4585,48.9645 41.2919,52.7978 43,57.5C 43.4838,63.8714 43.4838,70.2047 43,76.5C 52.7195,62.7255 65.8861,57.3922 82.5,60.5C 83.2868,59.7579 83.9535,58.9246 84.5,58C 95.5598,56.4744 106.226,57.8077 116.5,62C 120.949,65.3969 123.449,69.8969 124,75.5C 124.333,88.8333 124.667,102.167 125,115.5C 126.333,116.833 127.667,116.833 129,115.5C 132.749,107.595 134.915,99.2616 135.5,90.5C 144.656,91.4146 153.656,93.0813 162.5,95.5C 161.287,100.779 160.287,106.112 159.5,111.5C 159.39,113.374 160.056,114.874 161.5,116C 172.093,117.595 182.76,117.928 193.5,117C 193.833,116.667 194.167,116.333 194.5,116C 193.333,114.167 192.167,112.333 191,110.5C 184,104.167 177,97.8333 170,91.5C 165.332,79.8248 168.498,70.9915 179.5,65C 193.521,56.3201 208.187,49.3201 223.5,44C 227.295,51.7577 230.962,59.5911 234.5,67.5C 223.732,72.4291 213.065,77.5958 202.5,83C 209.4,88.9964 215.233,95.8298 220,103.5C 229.152,125.029 222.319,138.529 199.5,144C 185.821,145.894 172.155,145.894 158.5,144C 153.582,143.122 149.082,141.289 145,138.5C 126.57,149.444 109.403,147.777 93.5,133.5C 85.737,143.925 75.4037,147.758 62.5,145C 50.7258,141.059 42.7258,133.226 38.5,121.5C 36.2351,120.353 33.9018,120.186 31.5,121C 38.2137,126.576 40.047,133.409 37,141.5C 29.5915,148.558 21.4248,149.391 12.5,144C 6.12792,139.62 2.12792,133.62 0.5,126C 1.45177,120.55 4.45177,116.717 9.5,114.5C 6.60714,111.381 4.77381,107.714 4,103.5C 4.46584,88.8393 4.79918,74.1726 5,59.5C 3.6634,55.4933 1.83006,51.8267 -0.5,48.5 Z M 80.5,84.5 C 82.1439,84.2865 83.6439,84.6198 85,85.5C 85.2737,93.083 83.9403,100.416 81,107.5C 80.2178,110.076 78.7178,112.076 76.5,113.5C 70.4485,105.616 69.9485,97.2827 75,88.5C 76.4998,86.5313 78.3331,85.198 80.5,84.5 Z"/></g>
<g><path style="opacity:1" fill="#592e13" d="M 788.5,49.5 C 788.517,51.5648 788.85,53.5648 789.5,55.5C 789.664,58.1873 789.497,60.854 789,63.5C 788.439,64.0219 787.772,64.3552 787,64.5C 781.55,61.6935 775.883,61.0268 770,62.5C 767.575,61.7386 766.242,60.072 766,57.5C 764.425,42.9239 770.592,38.2572 784.5,43.5C 787.036,44.7022 788.37,46.7022 788.5,49.5 Z"/></g>
<g><path style="opacity:1" fill="#592d13" d="M 790.5,55.5 C 790.5,52.8333 790.5,50.1667 790.5,47.5C 791.359,44.5479 793.359,42.7146 796.5,42C 801.363,41.1915 806.03,41.8582 810.5,44C 811.717,45.6477 812.55,47.481 813,49.5C 813.499,54.4889 813.666,59.4889 813.5,64.5C 808.701,63.426 803.867,62.426 799,61.5C 793.344,64.4066 790.511,62.4066 790.5,55.5 Z"/></g>
<g><path style="opacity:1" fill="#592e13" d="M 1449.5,42.5 C 1454.95,42.159 1460.12,43.159 1465,45.5C 1467.25,51.6053 1468.08,57.9386 1467.5,64.5C 1460.28,62.9274 1453.12,62.2608 1446,62.5C 1443.86,58.0301 1443.19,53.3635 1444,48.5C 1445.36,45.9774 1447.19,43.9774 1449.5,42.5 Z"/></g>
<g><path style="opacity:0.889" fill="#fbf9f9" d="M 1175.5,43.5 C 1176.38,43.3691 1177.04,43.7025 1177.5,44.5C 1180.97,52.2526 1184.64,59.9193 1188.5,67.5C 1177.59,72.2905 1166.92,77.6239 1156.5,83.5C 1163.93,90.1058 1170.1,97.7725 1175,106.5C 1181.71,126.907 1174.54,139.407 1153.5,144C 1144.53,145.106 1135.53,145.606 1126.5,145.5C 1124.92,151.155 1121.92,155.988 1117.5,160C 1092.88,177.961 1068.21,177.961 1043.5,160C 1027.62,143.175 1024.12,124.009 1033,102.5C 1038.32,92.0123 1046.82,86.0123 1058.5,84.5C 1062.34,84.9985 1065.84,86.3319 1069,88.5C 1068.12,82.159 1068.45,75.8257 1070,69.5C 1071.45,64.6921 1074.62,62.8588 1079.5,64C 1082.95,66.0588 1086.62,67.5588 1090.5,68.5C 1091.75,67.9598 1092.91,67.2931 1094,66.5C 1099.38,71.7513 1101.38,78.0846 1100,85.5C 1101.65,84.283 1103.48,83.4497 1105.5,83C 1110.55,82.219 1115.55,82.3857 1120.5,83.5C 1121.13,77.7861 1123.46,72.9527 1127.5,69C 1142.83,59.1682 1158.83,50.6682 1175.5,43.5 Z M 1071.5,91.5 C 1075.15,92.9873 1078.81,94.4873 1082.5,96C 1085.87,96.5428 1089.2,96.3761 1092.5,95.5C 1092.08,98.647 1091.74,101.814 1091.5,105C 1092.94,114.178 1094.11,123.345 1095,132.5C 1083.59,139.436 1072.43,138.936 1061.5,131C 1055.92,126.851 1055.25,122.184 1059.5,117C 1062.57,115.154 1065.9,114.154 1069.5,114C 1073.07,111.322 1074.74,107.656 1074.5,103C 1074.21,98.9569 1073.21,95.1236 1071.5,91.5 Z M 1127.5,95.5 C 1134.43,100.926 1140.93,106.926 1147,113.5C 1147.49,114.793 1147.66,116.127 1147.5,117.5C 1141.17,117.5 1134.83,117.5 1128.5,117.5C 1128.76,110.11 1128.43,102.777 1127.5,95.5 Z"/></g>
<g><path style="opacity:1" fill="#582c11" d="M 31.5,112.5 C 30.0821,114.308 28.0821,114.975 25.5,114.5C 17.0971,114.238 11.5971,110.238 9,102.5C 9.045,90.8298 9.545,79.1632 10.5,67.5C 10.9917,61.6804 9.99165,56.1804 7.5,51C 8.44402,49.5232 9.77735,48.5232 11.5,48C 30.8525,44.3635 39.6858,52.1969 38,71.5C 33.9544,84.8903 31.7878,98.5569 31.5,112.5 Z"/></g>
<g><path style="opacity:1" fill="#997e6d" d="M 790.5,47.5 C 790.5,50.1667 790.5,52.8333 790.5,55.5C 790.167,55.5 789.833,55.5 789.5,55.5C 788.85,53.5648 788.517,51.5648 788.5,49.5C 789.167,48.8333 789.833,48.1667 790.5,47.5 Z"/></g>
<g><path style="opacity:0.897" fill="#faf8f7" d="M 1289.5,49.5 C 1300.88,49.5878 1308.38,54.9212 1312,65.5C 1312.99,69.4423 1313.66,73.4423 1314,77.5C 1324.81,68.4199 1336.31,67.2532 1348.5,74C 1354.65,81.116 1357.65,89.4493 1357.5,99C 1356.79,103.497 1356.62,107.997 1357,112.5C 1360.35,115.169 1363.02,114.503 1365,110.5C 1367.16,100.101 1366.83,89.7674 1364,79.5C 1362.17,77 1360.33,74.5 1358.5,72C 1386.61,54.3941 1401.61,61.8941 1403.5,94.5C 1402.5,106.156 1402.33,117.823 1403,129.5C 1404.48,133.43 1405.64,137.43 1406.5,141.5C 1401.77,141.675 1397.1,142.342 1392.5,143.5C 1394.34,151.781 1393.5,159.781 1390,167.5C 1385.69,170.545 1380.86,171.878 1375.5,171.5C 1365.52,171.52 1360.52,166.52 1360.5,156.5C 1360.19,152.252 1361.19,148.419 1363.5,145C 1353.03,142.213 1342.36,140.713 1331.5,140.5C 1312.57,144.661 1293.4,146.327 1274,145.5C 1258.56,146.446 1243.39,144.946 1228.5,141C 1216.2,135.709 1208.7,126.542 1206,113.5C 1203.86,101.037 1205.86,89.3705 1212,78.5C 1216.16,72.5869 1221.83,69.2536 1229,68.5C 1232.43,68.9363 1235.43,70.2697 1238,72.5C 1235.05,80.0306 1232.88,87.8639 1231.5,96C 1232.81,101.307 1236.14,104.64 1241.5,106C 1254,108.863 1266.67,110.03 1279.5,109.5C 1292.87,109.497 1306.21,108.83 1319.5,107.5C 1319,100.799 1318.16,94.1325 1317,87.5C 1316.1,84.9293 1314.77,82.596 1313,80.5C 1311.81,82.9148 1309.81,84.2481 1307,84.5C 1301.03,81.2456 1295.03,80.9122 1289,83.5C 1287.44,82.9706 1285.94,82.304 1284.5,81.5C 1283.07,82.935 1281.4,83.935 1279.5,84.5C 1275.05,83.2623 1270.55,82.2623 1266,81.5C 1260.83,84.676 1256.5,83.676 1253,78.5C 1248.16,71.1588 1247.16,63.4921 1250,55.5C 1254.92,50.7981 1260.76,49.2981 1267.5,51C 1271.36,52.1811 1274.86,54.0144 1278,56.5C 1280.87,52.4866 1284.7,50.1532 1289.5,49.5 Z M 1374.5,139.5 C 1381.13,140.489 1381.13,141.489 1374.5,142.5C 1373.83,142.167 1373.17,141.833 1372.5,141.5C 1373.24,140.818 1373.91,140.151 1374.5,139.5 Z"/></g>
<g><path style="opacity:1" fill="#572b11" d="M 888.5,50.5 C 909.619,47.2266 927.452,53.2266 942,68.5C 951.16,83.5881 952.993,99.5881 947.5,116.5C 951.472,119.827 955.806,120.327 960.5,118C 963.754,114.519 965.588,110.352 966,105.5C 966.667,99.5 966.667,93.5 966,87.5C 964.778,82.3528 963.445,77.3528 962,72.5C 969.517,68.0885 977.35,67.4218 985.5,70.5C 988.726,74.2858 990.893,78.6191 992,83.5C 992.542,95.0061 992.375,106.506 991.5,118C 991.424,124.264 992.091,130.431 993.5,136.5C 988.537,137.496 983.537,137.663 978.5,137C 974.873,136.436 971.707,134.936 969,132.5C 963.681,138.167 957.181,140.001 949.5,138C 945.472,135.651 941.806,132.817 938.5,129.5C 916.499,148.201 891.999,152.534 865,142.5C 851.783,146.565 838.283,148.398 824.5,148C 815.613,145.147 808.447,139.981 803,132.5C 791.963,141.628 780.13,142.795 767.5,136C 764.983,133.651 762.65,131.151 760.5,128.5C 755.599,145.136 747.932,160.303 737.5,174C 730.075,178.237 722.075,179.57 713.5,178C 709.79,176.812 706.79,174.645 704.5,171.5C 719.209,154.422 730.043,135.089 737,113.5C 739.113,102.748 738.946,92.0818 736.5,81.5C 746.844,79.5865 754.678,83.2532 760,92.5C 761.716,99.4534 763.049,106.453 764,113.5C 772.962,122.458 779.962,121.125 785,109.5C 785.667,101.5 785.667,93.5 785,85.5C 784.278,81.3281 782.778,77.4948 780.5,74C 788.329,67.278 796.995,65.9447 806.5,70C 808.049,71.214 809.215,72.714 810,74.5C 813.889,89.0555 814.556,103.722 812,118.5C 819.159,126.519 827.659,128.519 837.5,124.5C 832.877,102.908 841.043,88.2414 862,80.5C 865.75,79.2915 869.584,78.4582 873.5,78C 868.064,73.2145 867.23,67.7145 871,61.5C 875.88,56.1522 881.714,52.4856 888.5,50.5 Z M 896.5,76.5 C 896.389,77.1174 896.056,77.6174 895.5,78C 908.584,87.1194 913.751,99.6194 911,115.5C 916.214,112.619 919.547,108.285 921,102.5C 922.626,84.6252 914.459,75.9585 896.5,76.5 Z M 873.5,97.5 C 866.637,103.58 863.804,111.247 865,120.5C 865.347,122.18 866.347,123.18 868,123.5C 870.321,122.513 871.987,120.846 873,118.5C 876.917,112.194 877.917,105.527 876,98.5C 875.329,97.7476 874.496,97.4142 873.5,97.5 Z"/></g>
<g><path style="opacity:1" fill="#572c11" d="M 1144.5,139.5 C 1137.83,139.5 1131.17,139.5 1124.5,139.5C 1124.37,133.797 1124.71,128.13 1125.5,122.5C 1134.24,122.876 1142.9,122.376 1151.5,121C 1152.57,119.687 1153.24,118.187 1153.5,116.5C 1152.61,113.721 1151.44,111.055 1150,108.5C 1142.67,101.833 1135.33,95.1667 1128,88.5C 1125.85,83.6729 1126.19,79.0062 1129,74.5C 1143.2,64.6511 1158.37,56.8178 1174.5,51C 1177.1,55.5428 1179.44,60.2095 1181.5,65C 1169.73,70.0523 1158.39,75.8856 1147.5,82.5C 1155.19,89.0283 1162.03,96.3616 1168,104.5C 1173.52,112.994 1173.85,121.661 1169,130.5C 1162.02,136.55 1153.86,139.55 1144.5,139.5 Z"/></g>
<g><path style="opacity:1" fill="#572b11" d="M 218.5,50.5 C 219.675,50.281 220.675,50.6143 221.5,51.5C 223.678,56.1652 225.512,60.8318 227,65.5C 215.35,70.2414 204.184,75.9081 193.5,82.5C 201.556,89.3872 208.722,97.0538 215,105.5C 223.235,123.472 217.735,134.638 198.5,139C 183.736,141.329 169.07,140.996 154.5,138C 151.091,135.966 148.091,133.466 145.5,130.5C 141.67,134.587 137.003,137.421 131.5,139C 119.867,140.631 109.201,138.297 99.5,132C 96.4673,128.982 94.3007,125.482 93,121.5C 85.7563,140.135 73.2563,144.968 55.5,136C 43.324,124.475 38.4907,110.308 41,93.5C 47.9242,70.2933 63.0909,61.46 86.5,67C 88.286,67.7845 89.786,68.9512 91,70.5C 91.4298,67.8078 91.2631,65.1411 90.5,62.5C 95.8993,62.309 101.233,62.809 106.5,64C 113.545,64.7115 117.711,68.5448 119,75.5C 119.333,89.5 119.667,103.5 120,117.5C 121.825,122.441 124.991,123.607 129.5,121C 134.209,117.763 137.042,113.263 138,107.5C 138.719,103.855 139.219,100.188 139.5,96.5C 144.773,97.6008 150.106,98.2675 155.5,98.5C 154.668,104.484 154.501,110.484 155,116.5C 156.167,118.333 157.667,119.833 159.5,121C 165.923,122.105 172.423,122.605 179,122.5C 185.271,122.626 191.437,122.126 197.5,121C 200.072,117.181 199.905,113.348 197,109.5C 188.808,102.064 180.808,94.3972 173,86.5C 172.299,83.0717 172.632,79.7383 174,76.5C 176.205,73.9598 178.705,71.7932 181.5,70C 193.61,62.9463 205.944,56.4463 218.5,50.5 Z M 80.5,84.5 C 78.3331,85.198 76.4998,86.5313 75,88.5C 69.9485,97.2827 70.4485,105.616 76.5,113.5C 78.7178,112.076 80.2178,110.076 81,107.5C 83.9403,100.416 85.2737,93.083 85,85.5C 83.6439,84.6198 82.1439,84.2865 80.5,84.5 Z"/></g>
<g><path style="opacity:1" fill="#592d13" d="M 1285.5,55.5 C 1302.09,54.0935 1309.76,61.7601 1308.5,78.5C 1301.54,76.6136 1294.54,76.1136 1287.5,77C 1283.06,72.0005 1281.22,66.1671 1282,59.5C 1283.38,58.2949 1284.54,56.9616 1285.5,55.5 Z"/></g>
<g><path style="opacity:1" fill="#592d13" d="M 1257.5,55.5 C 1268.52,54.5756 1275.69,59.2422 1279,69.5C 1279.5,72.4816 1279.66,75.4816 1279.5,78.5C 1272.3,76.7487 1265.14,76.0821 1258,76.5C 1254,71.48 1252.66,65.8133 1254,59.5C 1255.1,58.051 1256.27,56.7177 1257.5,55.5 Z"/></g>
<g><path style="opacity:1" fill="#572c11" d="M 443.5,139.5 C 441.833,139.5 440.167,139.5 438.5,139.5C 438.5,137.833 438.5,136.167 438.5,134.5C 438.5,130.5 438.5,126.5 438.5,122.5C 448.792,123.382 454.959,118.716 457,108.5C 458.015,104.56 458.515,100.56 458.5,96.5C 464.26,96.9601 469.927,97.9601 475.5,99.5C 474.626,101.747 474.292,104.08 474.5,106.5C 472.973,110.925 473.473,115.258 476,119.5C 475.709,115.226 475.543,110.893 475.5,106.5C 475.722,103.924 477.055,103.09 479.5,104C 483.456,110.29 488.456,115.624 494.5,120C 502.543,122.231 507.71,119.398 510,111.5C 512,102.167 512,92.8333 510,83.5C 509.171,79.8388 507.671,76.5054 505.5,73.5C 508.005,71.7467 510.671,70.2467 513.5,69C 525.481,64.9995 533.314,68.8328 537,80.5C 537.333,98.1667 537.667,115.833 538,133.5C 538.813,135.436 539.313,137.436 539.5,139.5C 534.156,139.666 528.823,139.499 523.5,139C 519.873,138.436 516.707,136.936 514,134.5C 510.211,138.544 505.544,140.877 500,141.5C 492.631,139.888 485.131,139.054 477.5,139C 472.259,137.761 468.092,134.928 465,130.5C 459.087,136.37 451.921,139.37 443.5,139.5 Z"/></g>
<g><path style="opacity:1" fill="#572b11" d="M 1375.5,68.5 C 1384.96,66.0349 1391.79,69.0349 1396,77.5C 1397.29,95.4345 1397.96,113.434 1398,131.5C 1398.81,133.436 1399.31,135.436 1399.5,137.5C 1391.99,138.012 1384.66,137.178 1377.5,135C 1376.67,134.167 1375.83,133.333 1375,132.5C 1371.36,136.826 1366.69,138.826 1361,138.5C 1344.45,135.119 1327.95,135.285 1311.5,139C 1290.52,140.476 1269.52,140.809 1248.5,140C 1219.43,137.927 1206.93,122.427 1211,93.5C 1212.87,85.3166 1217.37,79.15 1224.5,75C 1226.81,74.5034 1229.14,74.3367 1231.5,74.5C 1219.96,98.9209 1227.63,112.088 1254.5,114C 1277.87,114.918 1301.21,114.418 1324.5,112.5C 1325.54,101.194 1323.87,90.3606 1319.5,80C 1329.54,72.2814 1339.04,72.7814 1348,81.5C 1349,83.5 1350,85.5 1351,87.5C 1351.33,96.8333 1351.67,106.167 1352,115.5C 1356.77,120.101 1361.94,120.601 1367.5,117C 1373.17,105.239 1374.01,93.0723 1370,80.5C 1369.36,77.8877 1368.19,75.5543 1366.5,73.5C 1369.43,71.5376 1372.43,69.8709 1375.5,68.5 Z"/></g>
<g><path style="opacity:1" fill="#592e14" d="M 616.5,68.5 C 619.93,69.7138 623.264,71.2138 626.5,73C 629.426,73.2178 632.26,73.7178 635,74.5C 636.834,90.5142 630.668,94.8475 616.5,87.5C 613.948,81.2052 613.948,74.8719 616.5,68.5 Z"/></g>
<g><path style="opacity:1" fill="#592e13" d="M 1076.5,68.5 C 1081.9,71.8003 1087.73,73.8003 1094,74.5C 1095.51,91.2387 1089.18,95.2387 1075,86.5C 1072.8,80.2227 1073.3,74.2227 1076.5,68.5 Z"/></g>
<g><path style="opacity:0.912" fill="#faf8f8" d="M 894.5,71.5 C 909.609,69.6328 920.109,75.6328 926,89.5C 928.866,107.985 921.199,119.652 903,124.5C 902.5,124.167 902,123.833 901.5,123.5C 911.145,103.131 905.812,88.1313 885.5,78.5C 888.233,75.7606 891.233,73.4273 894.5,71.5 Z M 896.5,76.5 C 896.389,77.1174 896.056,77.6174 895.5,78C 908.584,87.1194 913.751,99.6194 911,115.5C 916.214,112.619 919.547,108.285 921,102.5C 922.626,84.6252 914.459,75.9585 896.5,76.5 Z"/></g>
<g><path style="opacity:0.907" fill="#f8f6f5" d="M 77.5,79.5 C 83.1139,78.4137 87.6139,80.0803 91,84.5C 90.5039,95.8109 87.5039,106.478 82,116.5C 77.2503,120.816 73.2503,120.15 70,114.5C 65.8188,105.634 65.4855,96.6338 69,87.5C 71.0738,83.9231 73.9072,81.2565 77.5,79.5 Z M 80.5,84.5 C 78.3331,85.198 76.4998,86.5313 75,88.5C 69.9485,97.2827 70.4485,105.616 76.5,113.5C 78.7178,112.076 80.2178,110.076 81,107.5C 83.9403,100.416 85.2737,93.083 85,85.5C 83.6439,84.6198 82.1439,84.2865 80.5,84.5 Z"/></g>
<g><path style="opacity:1" fill="#572b10" d="M 674.5,139.5 C 670.894,139.789 667.394,139.456 664,138.5C 663.536,139.094 663.369,139.761 663.5,140.5C 660.174,151.995 652.841,159.828 641.5,164C 616.544,173.343 596.044,167.51 580,146.5C 572.387,130.91 572.721,115.577 581,100.5C 586.688,92.7319 594.188,89.5653 603.5,91C 606,92.1667 607.833,94 609,96.5C 609.667,100.5 609.667,104.5 609,108.5C 588.687,113.189 586.187,122.689 601.5,137C 615.083,144.729 628.25,144.229 641,135.5C 641.167,134 641.333,132.5 641.5,131C 640.073,122.012 638.74,113.012 637.5,104C 637.472,93.8633 642.472,88.3633 652.5,87.5C 656.754,87.5635 660.754,88.5635 664.5,90.5C 663.898,92.6079 663.565,94.7746 663.5,97C 664.218,109.489 664.718,121.989 665,134.5C 665.499,130.514 665.666,126.514 665.5,122.5C 670.566,122.66 675.566,122.16 680.5,121C 681.333,120.167 682.167,119.333 683,118.5C 684.534,114.289 684.867,109.956 684,105.5C 682.556,98.8885 680.722,92.3885 678.5,86C 678.905,85.0546 679.572,84.3879 680.5,84C 684.251,83.2508 687.918,82.2508 691.5,81C 693.112,80.2797 694.612,80.4464 696,81.5C 701.918,96.534 702.918,111.867 699,127.5C 692.957,135.604 684.791,139.604 674.5,139.5 Z M 612.5,91.5 C 613.924,95.3588 614.924,99.3588 615.5,103.5C 615.717,108.364 613.717,111.864 609.5,114C 605.981,114.395 602.648,115.395 599.5,117C 597.653,119.579 597.153,122.412 598,125.5C 603.676,133.173 611.343,137.173 621,137.5C 627.428,137.956 632.594,135.789 636.5,131C 633.091,118.986 631.924,106.819 633,94.5C 630.083,96.3933 626.916,96.8933 623.5,96C 619.574,94.9734 615.907,93.4734 612.5,91.5 Z"/></g>
<g><path style="opacity:1" fill="#572b11" d="M 1123.5,112.5 C 1123.78,122.219 1123.45,131.886 1122.5,141.5C 1119.23,151.279 1112.89,158.446 1103.5,163C 1079.98,173.297 1059.48,169.13 1042,150.5C 1032.1,135.012 1031.1,119.012 1039,102.5C 1044.93,92.4453 1053.43,88.9453 1064.5,92C 1069.33,96.6238 1070.66,102.124 1068.5,108.5C 1062.37,108.817 1057.2,111.15 1053,115.5C 1049.8,123.958 1051.97,130.791 1059.5,136C 1070.12,142.998 1081.45,144.332 1093.5,140C 1096.1,139.117 1098.27,137.617 1100,135.5C 1100.67,131.5 1100.67,127.5 1100,123.5C 1097.53,115.314 1096.53,106.98 1097,98.5C 1100.98,88.7588 1108.15,85.2588 1118.5,88C 1120.22,88.7393 1121.89,89.5726 1123.5,90.5C 1122.94,97.7803 1122.94,105.114 1123.5,112.5 Z M 1071.5,91.5 C 1075.15,92.9873 1078.81,94.4873 1082.5,96C 1085.87,96.5428 1089.2,96.3761 1092.5,95.5C 1092.08,98.647 1091.74,101.814 1091.5,105C 1092.94,114.178 1094.11,123.345 1095,132.5C 1083.59,139.436 1072.43,138.936 1061.5,131C 1055.92,126.851 1055.25,122.184 1059.5,117C 1062.57,115.154 1065.9,114.154 1069.5,114C 1073.07,111.322 1074.74,107.656 1074.5,103C 1074.21,98.9569 1073.21,95.1236 1071.5,91.5 Z"/></g>
<g><path style="opacity:0.92" fill="#f8f6f5" d="M 871.5,92.5 C 875.287,91.8144 878.454,92.8144 881,95.5C 883.919,108.078 880.753,118.912 871.5,128C 865.787,130.396 861.954,128.562 860,122.5C 858.023,110.143 861.856,100.143 871.5,92.5 Z M 873.5,97.5 C 866.637,103.58 863.804,111.247 865,120.5C 865.347,122.18 866.347,123.18 868,123.5C 870.321,122.513 871.987,120.846 873,118.5C 876.917,112.194 877.917,105.527 876,98.5C 875.329,97.7476 874.496,97.4142 873.5,97.5 Z"/></g>
<g><path style="opacity:1" fill="#b4a093" d="M 474.5,106.5 C 474.833,106.5 475.167,106.5 475.5,106.5C 475.543,110.893 475.709,115.226 476,119.5C 473.473,115.258 472.973,110.925 474.5,106.5 Z"/></g>
<g><path style="opacity:1" fill="#a58e7f" d="M 31.5,112.5 C 32.404,113.209 32.7373,114.209 32.5,115.5C 29.9407,115.802 27.6074,115.468 25.5,114.5C 28.0821,114.975 30.0821,114.308 31.5,112.5 Z"/></g>
<g><path style="opacity:1" fill="#592e13" d="M 12.5,118.5 C 19.3879,118.861 25.2213,121.527 30,126.5C 36.3768,137.584 33.2102,142.75 20.5,142C 11.6392,138.832 7.13923,132.666 7,123.5C 8.35157,121.251 10.1849,119.584 12.5,118.5 Z"/></g>
<g><path style="opacity:1" fill="#a48b7d" d="M 1123.5,112.5 C 1124.17,115.833 1124.83,119.167 1125.5,122.5C 1124.71,128.13 1124.37,133.797 1124.5,139.5C 1131.17,139.5 1137.83,139.5 1144.5,139.5C 1137.27,140.198 1129.93,140.864 1122.5,141.5C 1123.45,131.886 1123.78,122.219 1123.5,112.5 Z"/></g>
<g><path style="opacity:1" fill="#beaca1" d="M 264.5,110.5 C 265.494,120.319 265.827,130.319 265.5,140.5C 268.167,140.5 270.833,140.5 273.5,140.5C 270.713,141.477 267.713,141.81 264.5,141.5C 264.5,131.167 264.5,120.833 264.5,110.5 Z"/></g>
<g><path style="opacity:1" fill="#805f4b" d="M 1418.5,127.5 C 1419.48,131.634 1419.82,135.968 1419.5,140.5C 1420.5,140.5 1421.5,140.5 1422.5,140.5C 1421.43,141.434 1420.1,141.768 1418.5,141.5C 1418.5,136.833 1418.5,132.167 1418.5,127.5 Z"/></g>
<g><path style="opacity:1" fill="#582c11" d="M 350.5,139.5 C 357.116,141.441 363.782,141.941 370.5,141C 371.701,141.903 372.535,143.069 373,144.5C 375.352,160.596 368.852,165.596 353.5,159.5C 352.066,157.78 351.233,155.78 351,153.5C 350.501,148.845 350.334,144.179 350.5,139.5 Z"/></g>
<g><path style="opacity:1" fill="#b5a196" d="M 438.5,134.5 C 438.5,136.167 438.5,137.833 438.5,139.5C 440.167,139.5 441.833,139.5 443.5,139.5C 441.735,140.461 439.735,140.795 437.5,140.5C 437.205,138.265 437.539,136.265 438.5,134.5 Z"/></g>
<g><path style="opacity:1" fill="#ab9588" d="M 674.5,139.5 C 671.038,140.482 667.371,140.815 663.5,140.5C 663.369,139.761 663.536,139.094 664,138.5C 667.394,139.456 670.894,139.789 674.5,139.5 Z"/></g>
<g><path style="opacity:1" fill="#592d13" d="M 976.5,145.5 C 978.5,145.5 980.5,145.5 982.5,145.5C 983.128,151.762 982.295,157.762 980,163.5C 975.219,166.363 970.052,167.196 964.5,166C 959.845,162.255 958.345,157.422 960,151.5C 961.248,146.378 964.248,145.045 969,147.5C 971.821,147.592 974.321,146.926 976.5,145.5 Z"/></g>
<g><path style="opacity:1" fill="#582d12" d="M 1385.5,144.5 C 1386.5,144.414 1387.33,144.748 1388,145.5C 1388.89,151.672 1388.23,157.672 1386,163.5C 1380.43,166.824 1374.6,167.324 1368.5,165C 1365.2,159.808 1364.7,154.308 1367,148.5C 1367.69,147.643 1368.52,146.977 1369.5,146.5C 1375.2,148.09 1380.54,147.423 1385.5,144.5 Z"/></g>
<g><path style="opacity:0.881" fill="#fbfafa" d="M 128.5,146.5 C 134.164,145.888 138.998,147.554 143,151.5C 150.659,144.546 157.992,144.88 165,152.5C 169.826,163.847 166.326,171.18 154.5,174.5C 149.833,174.339 145.833,172.672 142.5,169.5C 136.347,175.575 129.68,176.075 122.5,171C 117.167,164 117.167,157 122.5,150C 124.432,148.541 126.432,147.375 128.5,146.5 Z"/></g>
<g><path style="opacity:0.874" fill="#fcfbfa" d="M 447.5,146.5 C 453.164,145.888 457.998,147.554 462,151.5C 470.378,144.365 478.045,145.031 485,153.5C 488.935,164.91 485.102,171.91 473.5,174.5C 469.066,174.082 465.233,172.416 462,169.5C 456.08,175.314 449.58,175.98 442.5,171.5C 436.202,164.807 435.868,157.807 441.5,150.5C 443.29,148.684 445.29,147.351 447.5,146.5 Z"/></g>
<g><path style="opacity:1" fill="#5a2f15" d="M 129.5,151.5 C 138.841,152.004 142.007,156.671 139,165.5C 133.186,171.205 128.186,170.538 124,163.5C 123.333,161.167 123.333,158.833 124,156.5C 125.73,154.598 127.563,152.931 129.5,151.5 Z"/></g>
<g><path style="opacity:1" fill="#5c3117" d="M 150.5,151.5 C 157.159,150.667 161.159,153.5 162.5,160C 160.347,168.577 155.347,170.911 147.5,167C 145.571,163.744 145.071,160.244 146,156.5C 147.193,154.503 148.693,152.836 150.5,151.5 Z"/></g>
<g><path style="opacity:1" fill="#5a2f15" d="M 448.5,151.5 C 456.523,151.683 460.023,155.683 459,163.5C 456.265,169.122 452.099,170.622 446.5,168C 440.733,161.676 441.4,156.176 448.5,151.5 Z"/></g>
<g><path style="opacity:1" fill="#5c3116" d="M 469.5,151.5 C 477.986,151.151 481.82,155.151 481,163.5C 476.175,171.061 470.841,171.394 465,164.5C 464.333,161.833 464.333,159.167 465,156.5C 466.707,154.963 468.207,153.296 469.5,151.5 Z"/></g>
<g><path style="opacity:1" fill="#5a2f15" d="M 670.5,151.5 C 681.684,152.042 684.684,157.209 679.5,167C 669.412,170.573 664.912,167.073 666,156.5C 667.366,154.638 668.866,152.972 670.5,151.5 Z"/></g>
<g><path style="opacity:1" fill="#5b3016" d="M 692.5,151.5 C 701.228,151.625 704.728,155.958 703,164.5C 696.579,171.612 691.246,170.945 687,162.5C 686.176,157.482 688.009,153.815 692.5,151.5 Z"/></g>
</svg>
