<?xml version="1.0" encoding="UTF-8"?>
<!DOCTYPE svg PUBLIC "-//W3C//DTD SVG 1.1//EN" "http://www.w3.org/Graphics/SVG/1.1/DTD/svg11.dtd">
<svg xmlns="http://www.w3.org/2000/svg" version="1.1" width="800px" height="350px" style="shape-rendering:geometricPrecision; text-rendering:geometricPrecision; image-rendering:optimizeQuality; fill-rule:evenodd; clip-rule:evenodd" xmlns:xlink="http://www.w3.org/1999/xlink">
<g><path style="opacity:0.981" fill="#fdfcfc" d="M 670.5,14.5 C 693.286,12.4515 706.12,22.7849 709,45.5C 713.309,41.8415 718.309,40.1748 724,40.5C 728.775,40.319 733.275,41.319 737.5,43.5C 742.292,18.5948 756.958,9.76145 781.5,17C 790.145,21.9985 795.312,29.4985 797,39.5C 797.667,63.5 797.667,87.5 797,111.5C 791.716,127.395 780.882,133.228 764.5,129C 760.421,126.925 756.921,124.092 754,120.5C 753.308,134.937 747.808,147.103 737.5,157C 726.977,163.323 715.977,164.157 704.5,159.5C 703.52,162.086 703.187,164.753 703.5,167.5C 719.21,163.125 732.376,167.125 743,179.5C 745.391,183.613 747.224,187.946 748.5,192.5C 754.568,198.632 758.568,205.965 760.5,214.5C 786.491,228.485 796.991,250.152 792,279.5C 786.372,299.141 773.372,309.141 753,309.5C 746.587,309.56 740.253,308.893 734,307.5C 723.743,310.712 713.41,311.045 703,308.5C 686.521,309.631 670.021,309.797 653.5,309C 649.596,307.524 645.596,306.357 641.5,305.5C 628.575,308.937 615.409,310.27 602,309.5C 593.669,309.469 585.503,308.802 577.5,307.5C 554.113,318.047 530.446,318.881 506.5,310C 501.387,306.887 496.887,303.054 493,298.5C 484.467,304.682 474.967,308.515 464.5,310C 460.202,326.298 449.869,336.631 433.5,341C 412.912,345.219 393.245,342.552 374.5,333C 364.477,325.648 356.644,316.482 351,305.5C 345.551,308.424 339.718,309.757 333.5,309.5C 324.487,342.838 303.82,353.672 271.5,342C 256.752,330.772 251.252,315.938 255,297.5C 256.904,288.464 259.57,279.798 263,271.5C 250.369,278.026 237.703,278.026 225,271.5C 222.091,282.54 215.257,289.706 204.5,293C 196.803,292.884 189.136,293.051 181.5,293.5C 167.692,292.366 159.025,285.033 155.5,271.5C 145.423,268.027 135.256,267.694 125,270.5C 120.712,270.517 116.545,269.851 112.5,268.5C 106.338,269.792 100.004,270.459 93.5,270.5C 87.5,270.333 81.5,270.167 75.5,270C 73.8308,267.915 71.6641,266.749 69,266.5C 44.5832,273.818 24.2499,267.818 8,248.5C 0.150476,232.435 0.817143,216.769 10,201.5C 20.6957,189.818 34.029,184.151 50,184.5C 64.7645,184.697 77.5978,189.697 88.5,199.5C 89.0398,190.698 92.3731,183.198 98.5,177C 104.785,159.857 116.785,153.857 134.5,159C 139.619,161.785 143.786,165.618 147,170.5C 152.188,178.226 156.354,186.559 159.5,195.5C 160.941,196.304 162.441,196.971 164,197.5C 175.666,185.461 189.499,182.294 205.5,188C 210.888,190.055 215.054,193.555 218,198.5C 228.209,193.997 238.709,193.331 249.5,196.5C 247.606,177.376 256.273,166.376 275.5,163.5C 290.19,165.023 299.023,173.023 302,187.5C 311.454,173.626 324.287,168.959 340.5,173.5C 361.783,168.391 376.283,176.058 384,196.5C 384.788,202.22 384.621,207.886 383.5,213.5C 400.871,216.369 412.704,226.036 419,242.5C 421.405,241.726 423.905,241.226 426.5,241C 428.604,235.135 430.604,229.135 432.5,223C 423.513,206.912 425.513,192.245 438.5,179C 448.199,171.47 458.866,169.637 470.5,173.5C 478.308,170.913 486.142,170.913 494,173.5C 509.484,163.291 524.151,164.291 538,176.5C 545.752,163.12 557.419,156.454 573,156.5C 586.17,156.421 596.836,161.421 605,171.5C 610.833,165 616.667,158.5 622.5,152C 620.01,150.851 617.51,149.684 615,148.5C 592.817,157.023 572.65,153.689 554.5,138.5C 537.745,119.564 532.911,97.8969 540,73.5C 544.016,64.5666 550.849,59.0666 560.5,57C 569.262,42.0585 581.595,38.0585 597.5,45C 602.317,48.4622 605.817,52.9622 608,58.5C 609.085,59.2931 610.252,59.9598 611.5,60.5C 622.004,49.4694 634.504,46.4694 649,51.5C 646.484,33.1611 653.651,20.8277 670.5,14.5 Z"/></g>
<g><path style="opacity:1" fill="#411b07" d="M 672.5,31.5 C 680.514,29.7611 686.347,32.4278 690,39.5C 690.667,62.8333 690.667,86.1667 690,109.5C 683.801,115.259 679.467,113.926 677,105.5C 672.683,83.2693 669.35,60.936 667,38.5C 668.666,36.0043 670.5,33.671 672.5,31.5 Z"/></g>
<g><path style="opacity:1" fill="#411b07" d="M 762.5,31.5 C 771.414,29.7277 777.247,33.061 780,41.5C 780.667,63.5 780.667,85.5 780,107.5C 777.009,114.415 773.009,115.082 768,109.5C 763.693,89.6593 760.026,69.6593 757,49.5C 756.333,45.5 756.333,41.5 757,37.5C 758.36,34.9774 760.193,32.9774 762.5,31.5 Z"/></g>
<g><path style="opacity:0.987" fill="#441f0d" d="M 723.5,56.5 C 730.693,58.2261 733.193,62.5594 731,69.5C 723.428,75.8102 718.261,74.1436 715.5,64.5C 716.579,60.0873 719.246,57.4206 723.5,56.5 Z"/></g>
<g><path style="opacity:0.988" fill="#451f0e" d="M 581.5,58.5 C 588.935,58.435 592.435,62.1016 592,69.5C 587.408,75.6791 582.408,76.0124 577,70.5C 575.474,65.2389 576.974,61.2389 581.5,58.5 Z"/></g>
<g><path style="opacity:1" fill="#411c08" d="M 631.5,66.5 C 638.916,65.2424 644.749,67.5758 649,73.5C 658.218,101.955 648.051,115.455 618.5,114C 614.017,132.419 602.35,139.419 583.5,135C 571.52,131.931 563.02,124.765 558,113.5C 554.034,103.393 553.034,93.06 555,82.5C 556.798,76.8633 560.632,74.1966 566.5,74.5C 573.563,74.2801 578.73,77.2801 582,83.5C 582.555,89.1798 582.388,94.8464 581.5,100.5C 581.514,108.344 585.347,113.01 593,114.5C 594.436,114.441 595.769,114.108 597,113.5C 597.667,110.833 597.667,108.167 597,105.5C 592.07,99.8078 588.903,93.3078 587.5,86C 587.7,81.6018 589.7,78.2685 593.5,76C 601.124,74.0637 607.291,76.2304 612,82.5C 613.787,86.5766 615.954,90.41 618.5,94C 622.486,94.4988 626.486,94.6655 630.5,94.5C 630.66,92.8008 630.494,91.1341 630,89.5C 627.603,85.3768 625.77,81.0435 624.5,76.5C 625.288,72.0515 627.621,68.7182 631.5,66.5 Z"/></g>
<g><path style="opacity:1" fill="#421c09" d="M 729.5,76.5 C 734.28,75.6409 737.78,77.3075 740,81.5C 740.667,85.5 740.667,89.5 740,93.5C 738.073,108.326 735.407,122.993 732,137.5C 728.024,144.236 722.191,146.736 714.5,145C 711.898,144.117 709.731,142.617 708,140.5C 706.494,135.254 706.161,129.921 707,124.5C 711.692,109.418 717.359,94.7516 724,80.5C 726.015,79.3034 727.849,77.9701 729.5,76.5 Z"/></g>
<g><path style="opacity:1" fill="#451f0d" d="M 633.5,136.5 C 632.081,135.549 630.415,135.216 628.5,135.5C 628.198,138.059 628.532,140.393 629.5,142.5C 629.662,144.527 629.495,146.527 629,148.5C 628.586,148.957 628.086,149.291 627.5,149.5C 627.167,148.5 626.833,147.5 626.5,146.5C 628.515,140.918 627.681,135.918 624,131.5C 623.05,121.132 627.383,118.132 637,122.5C 639.291,126.814 638.958,130.814 636,134.5C 635.814,136.9 635.314,139.234 634.5,141.5C 633.548,139.955 633.215,138.288 633.5,136.5 Z"/></g>
<g><path style="opacity:1" fill="#451f0d" d="M 643.5,120.5 C 651.712,119.226 655.546,122.559 655,130.5C 651.966,133.514 650.799,137.181 651.5,141.5C 650.5,141.5 649.5,141.5 648.5,141.5C 648.712,136.557 647.712,135.89 645.5,139.5C 643.5,135.833 641.5,132.167 639.5,128.5C 639.892,125.299 641.226,122.633 643.5,120.5 Z"/></g>
<g><path style="opacity:1" fill="#b5a59d" d="M 633.5,136.5 C 632.167,136.5 630.833,136.5 629.5,136.5C 629.5,138.5 629.5,140.5 629.5,142.5C 628.532,140.393 628.198,138.059 628.5,135.5C 630.415,135.216 632.081,135.549 633.5,136.5 Z"/></g>
<g><path style="opacity:1" fill="#411b07" d="M 671.5,262.5 C 675.298,263.483 679.298,263.817 683.5,263.5C 683.768,261.901 683.434,260.568 682.5,259.5C 681.441,254.552 681.274,249.552 682,244.5C 687.241,236.47 693.575,235.47 701,241.5C 703.607,246.38 705.94,251.38 708,256.5C 709,257.5 710,258.5 711,259.5C 711.406,255.66 711.239,251.827 710.5,248C 711.804,238.665 717.138,235.332 726.5,238C 727.931,238.465 729.097,239.299 730,240.5C 733.345,247.202 737.179,253.535 741.5,259.5C 742.223,256.106 741.723,252.772 740,249.5C 737.302,237.53 741.802,233.03 753.5,236C 768.495,245.64 773.661,259.14 769,276.5C 764.194,286.313 756.361,289.813 745.5,287C 740.695,286.233 736.361,284.4 732.5,281.5C 725.497,287.215 717.497,289.048 708.5,287C 704.206,285.855 700.539,283.688 697.5,280.5C 695.48,284.019 692.48,286.186 688.5,287C 679.167,287.667 669.833,287.667 660.5,287C 653.566,285.967 647.232,283.467 641.5,279.5C 634.486,283.893 626.819,286.393 618.5,287C 609.167,287.667 599.833,287.667 590.5,287C 585.606,286.202 580.939,284.702 576.5,282.5C 560.631,291.307 543.631,294.807 525.5,293C 509.215,288.462 504.715,278.628 512,263.5C 516.029,260.156 520.696,258.489 526,258.5C 533.339,259.836 540.673,261.17 548,262.5C 562.902,261.732 568.235,254.066 564,239.5C 561.284,224.537 558.784,209.537 556.5,194.5C 556.571,187.861 559.571,183.027 565.5,180C 571.237,179.211 576.903,179.544 582.5,181C 586.058,182.892 588.558,185.725 590,189.5C 590.989,212.858 591.989,236.192 593,259.5C 593.833,260.333 594.667,261.167 595.5,262C 603.911,262.905 612.245,262.572 620.5,261C 622.329,259.887 623.163,258.387 623,256.5C 618.439,253.812 613.606,251.645 608.5,250C 603.138,245.61 600.472,239.943 600.5,233C 601.208,219.42 605.708,207.253 614,196.5C 624.118,183.382 635.285,171.215 647.5,160C 651.569,156.937 655.902,154.27 660.5,152C 676.608,150.101 682.775,156.935 679,172.5C 677.207,175.295 675.04,177.795 672.5,180C 662.709,187.456 653.209,195.289 644,203.5C 638.01,210.814 632.51,218.481 627.5,226.5C 640.81,233.638 651.81,243.471 660.5,256C 663.563,259.198 667.229,261.364 671.5,262.5 Z"/></g>
<g><path style="opacity:0.985" fill="#411c08" d="M 271.5,181.5 C 280.657,180.489 284.49,184.489 283,193.5C 278,198.833 273,198.833 268,193.5C 266.593,188.643 267.76,184.643 271.5,181.5 Z"/></g>
<g><path style="opacity:1" fill="#441f0d" d="M 121.5,174.5 C 127.646,174.148 131.313,176.982 132.5,183C 132.297,185.406 131.297,187.406 129.5,189C 140.133,189.936 142.8,194.936 137.5,204C 132.587,206.587 128.42,205.753 125,201.5C 124.259,198.438 124.425,195.438 125.5,192.5C 124.277,191.386 122.944,191.219 121.5,192C 125.397,201.777 122.064,206.11 111.5,205C 106.167,200 106.167,195 111.5,190C 113.833,189.667 116.167,189.333 118.5,189C 114.049,183.09 115.049,178.257 121.5,174.5 Z"/></g>
<g><path style="opacity:1" fill="#411b07" d="M 511.5,189.5 C 515.131,189.16 518.464,189.994 521.5,192C 537.395,207.632 549.395,225.799 557.5,246.5C 556.613,251.971 553.28,254.638 547.5,254.5C 545.701,254.423 544.034,253.923 542.5,253C 530.241,242.952 518.074,232.786 506,222.5C 501.833,215.755 500.5,208.421 502,200.5C 504.314,196.025 507.48,192.358 511.5,189.5 Z"/></g>
<g><path style="opacity:1" fill="#431e0c" d="M 325.5,194.5 C 332.863,193.051 338.03,195.718 341,202.5C 343.549,195.642 348.383,193.142 355.5,195C 363.525,199.815 364.525,205.815 358.5,213C 348.578,217.62 342.745,214.453 341,203.5C 339.949,212.226 335.116,216.059 326.5,215C 317.624,208.58 317.291,201.747 325.5,194.5 Z"/></g>
<g><path style="opacity:1" fill="#431d0b" d="M 455.5,194.5 C 462.663,193.331 467.829,195.998 471,202.5C 473.549,195.642 478.383,193.142 485.5,195C 491.109,198.277 492.942,203.11 491,209.5C 484.715,217.487 478.382,217.487 472,209.5C 471.667,207.5 471.333,205.5 471,203.5C 469.949,212.226 465.116,216.059 456.5,215C 449.586,211.23 447.753,205.73 451,198.5C 452.397,196.93 453.897,195.596 455.5,194.5 Z"/></g>
<g><path style="opacity:1" fill="#411c08" d="M 40.5,202.5 C 64.7885,199.654 80.4551,209.821 87.5,233C 91.1516,233.499 94.8183,233.665 98.5,233.5C 97.0326,228.933 96.5326,224.267 97,219.5C 101.522,212.351 106.855,211.685 113,217.5C 114.556,222.28 116.889,226.613 120,230.5C 120.37,227.662 120.203,224.829 119.5,222C 120.445,214.079 124.778,211.412 132.5,214C 133.416,214.374 134.25,214.874 135,215.5C 137.748,220.666 140.748,225.666 144,230.5C 142.869,225.289 142.536,219.956 143,214.5C 147.182,210.738 151.682,210.571 156.5,214C 162.185,218.703 165.518,224.703 166.5,232C 171.047,233.545 175.713,233.879 180.5,233C 181.108,231.769 181.441,230.436 181.5,229C 179.885,222.851 178.719,216.684 178,210.5C 180.48,205.176 184.646,202.843 190.5,203.5C 196.775,202.738 201.275,205.071 204,210.5C 204.114,217.579 204.781,224.579 206,231.5C 206.5,232 207,232.5 207.5,233C 210.817,233.498 214.15,233.665 217.5,233.5C 218.247,214.946 227.581,208.446 245.5,214C 247.167,215 248.833,216 250.5,217C 254.584,221.829 257.917,227.162 260.5,233C 263.833,233.667 267.167,233.667 270.5,233C 271.576,231.274 271.743,229.441 271,227.5C 268.603,223.377 266.77,219.044 265.5,214.5C 268.94,203.457 275.94,200.624 286.5,206C 289.933,209.104 292.1,212.937 293,217.5C 297.534,245.133 286.034,256.466 258.5,251.5C 256.505,254.986 253.505,257.153 249.5,258C 239.827,259.832 231.827,256.998 225.5,249.5C 224.088,250.806 222.421,251.64 220.5,252C 213.833,252.667 207.167,252.667 200.5,252C 197.804,251.235 195.304,250.068 193,248.5C 184.222,252.236 175.055,253.403 165.5,252C 164.421,251.044 163.255,250.211 162,249.5C 153.282,253.862 144.949,253.195 137,247.5C 133.541,251.395 129.208,253.061 124,252.5C 118.537,252.686 113.703,251.019 109.5,247.5C 104.575,251.925 98.7422,253.592 92,252.5C 83.4369,253.478 75.9369,251.145 69.5,245.5C 56.6365,253.281 43.6365,253.448 30.5,246C 19.3742,236.009 17.5409,224.509 25,211.5C 29.5577,207.309 34.7244,204.309 40.5,202.5 Z"/></g>
<g><path style="opacity:1" fill="#a6948a" d="M 707.5,205.5 C 708.289,205.783 708.956,206.283 709.5,207C 706.854,207.497 704.187,207.664 701.5,207.5C 703.5,206.833 705.5,206.167 707.5,205.5 Z"/></g>
<g><path style="opacity:1" fill="#8d7669" d="M 723.5,206.5 C 725.735,206.205 727.735,206.539 729.5,207.5C 726.43,207.368 723.43,207.701 720.5,208.5C 720.973,207.094 721.973,206.427 723.5,206.5 Z"/></g>
<g><path style="opacity:1" fill="#431d0a" d="M 723.5,206.5 C 721.973,206.427 720.973,207.094 720.5,208.5C 717.873,209.105 715.207,209.605 712.5,210C 716.914,216.599 715.914,222.266 709.5,227C 698.52,229.019 693.687,224.519 695,213.5C 696.385,210.614 698.551,208.614 701.5,207.5C 704.187,207.664 706.854,207.497 709.5,207C 708.956,206.283 708.289,205.783 707.5,205.5C 702.981,196.564 705.481,190.897 715,188.5C 726.198,190.563 729.032,196.563 723.5,206.5 Z"/></g>
<g><path style="opacity:1" fill="#411b06" d="M 729.5,207.5 C 736.082,209.965 738.249,214.632 736,221.5C 732.252,227.542 727.085,229.042 720.5,226C 715.19,220.096 715.19,214.263 720.5,208.5C 723.43,207.701 726.43,207.368 729.5,207.5 Z"/></g>
<g><path style="opacity:1" fill="#f7f5f4" d="M 49.5,222.5 C 54.9361,221.387 58.9361,223.22 61.5,228C 57.5935,229.434 53.5935,229.767 49.5,229C 46.9571,226.848 46.9571,224.682 49.5,222.5 Z"/></g>
<g><path style="opacity:1" fill="#411b08" d="M 331.5,225.5 C 344.549,223.437 352.716,228.77 356,241.5C 362.908,275.589 349.075,291.089 314.5,288C 313.079,295.116 311.579,302.283 310,309.5C 303.795,324.902 293.795,328.236 280,319.5C 276.838,314.223 275.838,308.557 277,302.5C 282.366,273.452 299.699,259.785 329,261.5C 329.484,259.087 329.15,256.754 328,254.5C 326.254,250.673 324.254,247.007 322,243.5C 320.72,235.055 323.887,229.055 331.5,225.5 Z"/></g>
<g><path style="opacity:1" fill="#411c08" d="M 460.5,225.5 C 474.503,223.076 483.003,228.743 486,242.5C 486.667,250.833 486.667,259.167 486,267.5C 484.033,276.801 478.533,282.968 469.5,286C 459.863,287.027 450.196,287.86 440.5,288.5C 446.136,311.154 437.136,321.821 413.5,320.5C 394.752,320.879 380.919,312.879 372,296.5C 364.695,281.975 362.028,266.642 364,250.5C 368.747,237.221 377.58,233.721 390.5,240C 394.381,242.928 396.881,246.761 398,251.5C 397.577,261.482 397.577,271.482 398,281.5C 400.055,289.056 404.889,293.722 412.5,295.5C 414.319,295.658 415.652,294.991 416.5,293.5C 413.257,290.57 409.757,287.904 406,285.5C 402.022,279.205 402.855,273.705 408.5,269C 415.01,265.47 422.01,263.47 429.5,263C 439.161,262.5 448.828,262.334 458.5,262.5C 458.772,256.149 456.938,250.482 453,245.5C 449.662,236.527 452.162,229.86 460.5,225.5 Z"/></g>
<g><path style="opacity:1" fill="#e7e1de" d="M 236.5,231.5 C 241.231,231.525 243.897,233.858 244.5,238.5C 239.318,238.982 236.651,236.649 236.5,231.5 Z"/></g>
<g><path style="opacity:1" fill="#451f0d" d="M 178.5,259.5 C 187.207,259.037 190.707,263.037 189,271.5C 184.886,275.094 184.386,279.26 187.5,284C 186.615,286.157 184.948,286.99 182.5,286.5C 182.87,282.767 183.537,279.101 184.5,275.5C 176.395,276.228 172.895,272.562 174,264.5C 175.025,262.313 176.525,260.646 178.5,259.5 Z"/></g>
<g><path style="opacity:1" fill="#421d09" d="M 200.5,281.5 C 200.5,279.5 200.5,277.5 200.5,275.5C 199.167,275.5 197.833,275.5 196.5,275.5C 196.167,275.5 195.833,275.5 195.5,275.5C 194.833,275.167 194.167,274.833 193.5,274.5C 190.284,270.868 189.784,266.868 192,262.5C 196.954,258.323 201.62,258.657 206,263.5C 207.336,267.9 206.336,271.566 203,274.5C 203.03,277.361 202.197,279.695 200.5,281.5 Z"/></g>
<g><path style="opacity:1" fill="#887063" d="M 682.5,259.5 C 683.434,260.568 683.768,261.901 683.5,263.5C 679.298,263.817 675.298,263.483 671.5,262.5C 675.167,262.5 678.833,262.5 682.5,262.5C 682.5,261.5 682.5,260.5 682.5,259.5 Z"/></g>
<g><path style="opacity:1" fill="#b3a49b" d="M 196.5,275.5 C 197.833,275.5 199.167,275.5 200.5,275.5C 200.5,277.5 200.5,279.5 200.5,281.5C 199.549,280.081 199.216,278.415 199.5,276.5C 198.209,276.737 197.209,276.404 196.5,275.5 Z"/></g>
<g><path style="opacity:1" fill="#6a4432" d="M 193.5,274.5 C 194.167,274.833 194.833,275.167 195.5,275.5C 195.356,279.375 195.69,283.208 196.5,287C 196.612,288.662 195.946,289.829 194.5,290.5C 193.009,289.652 192.342,288.319 192.5,286.5C 193.274,282.535 193.607,278.535 193.5,274.5 Z"/></g>
</svg>
